<svg width="565" height="528" viewBox="0 0 565 528" fill="none" xmlns="http://www.w3.org/2000/svg">
<path d="M430.701 179.269L430.743 171.155L424.386 171.123L424.618 125.493L430.975 125.526L431.016 117.316L452.976 117.428L452.934 125.637L459.363 125.67L459.297 138.652L450.051 138.605L450.092 130.491L433.767 130.408L433.709 141.864L446.494 141.929L446.429 154.816L433.643 154.751L433.585 166.301L449.91 166.384L449.951 158.175L459.197 158.222L459.131 171.3L452.702 171.267L452.661 179.381L430.701 179.269Z" fill="#D4E8F1"/>
<path d="M395.721 179.091L395.969 130.216L392.43 130.198L392.389 138.312L383.215 138.265L383.281 125.283L389.637 125.315L389.679 117.106L411.638 117.217L411.597 125.427L418.025 125.46L417.959 138.442L408.713 138.395L408.755 130.281L405.215 130.263L404.967 179.139L395.721 179.091Z" fill="#D4E8F1"/>
<path d="M343.787 178.827L344.019 133.198L350.375 133.23L350.417 125.116L356.773 125.148L356.815 116.939L366.061 116.986L366.019 125.195L372.376 125.227L372.334 133.342L378.763 133.374L378.531 179.004L369.285 178.957L369.368 162.633L353.043 162.55L352.96 178.874L343.787 178.827ZM353.11 149.472L369.435 149.555L369.493 138.196L363.136 138.163L363.177 130.049L359.566 130.031L359.524 138.145L353.168 138.113L353.11 149.472Z" fill="#D4E8F1"/>
<path d="M306.619 178.638L306.661 170.524L300.304 170.492L300.578 116.653L309.752 116.699L309.503 165.67L325.827 165.753L325.869 157.544L335.115 157.591L335.049 170.669L328.62 170.636L328.579 178.75L306.619 178.638Z" fill="#D4E8F1"/>
<path d="M263.095 178.417L263.136 170.303L256.78 170.271L257.054 116.431L266.227 116.478L265.978 165.449L282.303 165.532L282.345 157.322L291.591 157.369L291.524 170.447L285.096 170.415L285.054 178.529L263.095 178.417Z" fill="#D4E8F1"/>
<path d="M213.215 178.163L213.447 132.534L219.803 132.566L219.845 124.452L226.201 124.484L226.243 116.275L235.489 116.322L235.447 124.531L241.804 124.563L241.763 132.678L248.191 132.71L247.959 178.34L238.713 178.293L238.796 161.969L222.471 161.886L222.388 178.21L213.215 178.163ZM222.538 148.808L238.863 148.891L238.921 137.532L232.564 137.499L232.605 129.385L228.994 129.367L228.952 137.481L222.596 137.449L222.538 148.808Z" fill="#D4E8F1"/>
<path d="M171.878 177.953L172.151 124.209L178.508 124.242L178.549 116.032L200.509 116.144L200.467 124.353L206.896 124.386L206.747 153.597L200.318 153.564L200.277 161.773L181.135 161.676L181.052 178L171.878 177.953ZM181.201 148.598L197.526 148.681L197.625 129.207L181.3 129.124L181.201 148.598Z" fill="#D4E8F1"/>
<path d="M447.846 247.199L447.888 239.085L438.429 239.037L438.661 193.407L448.12 193.455L448.161 185.246L480.838 185.412L480.796 193.621L490.363 193.67L490.297 206.652L476.538 206.582L476.579 198.468L452.287 198.345L452.229 209.8L471.254 209.897L471.189 222.784L452.163 222.687L452.104 234.238L476.397 234.361L476.439 226.152L490.197 226.222L490.13 239.3L480.564 239.251L480.523 247.365L447.846 247.199Z" fill="#D4E8F1"/>
<path d="M395.794 246.934L396.043 198.059L390.776 198.032L390.734 206.146L377.083 206.077L377.149 193.094L386.608 193.142L386.65 184.933L419.327 185.099L419.285 193.308L428.851 193.357L428.785 206.34L415.027 206.27L415.068 198.156L409.801 198.129L409.552 247.004L395.794 246.934Z" fill="#D4E8F1"/>
<path d="M318.513 246.541L318.745 200.911L328.204 200.959L328.245 192.845L337.704 192.893L337.746 184.684L351.504 184.754L351.463 192.963L360.922 193.012L360.88 201.126L370.447 201.174L370.215 246.804L356.456 246.734L356.539 230.411L332.247 230.287L332.164 246.611L318.513 246.541ZM332.314 217.209L356.606 217.333L356.664 205.973L347.205 205.925L347.246 197.811L341.872 197.783L341.83 205.897L332.371 205.849L332.314 217.209Z" fill="#D4E8F1"/>
<path d="M263.206 246.26L263.248 238.146L253.789 238.098L254.062 184.258L267.713 184.328L267.464 233.299L291.757 233.422L291.798 225.213L305.557 225.283L305.49 238.361L295.924 238.312L295.883 246.426L263.206 246.26Z" fill="#D4E8F1"/>
<path d="M198.441 245.93L198.482 237.816L189.023 237.768L189.297 183.929L202.948 183.998L202.699 232.969L226.991 233.093L227.033 224.883L240.791 224.953L240.725 238.031L231.158 237.983L231.117 246.097L198.441 245.93Z" fill="#D4E8F1"/>
<path d="M124.216 245.553L124.448 199.923L133.907 199.971L133.948 191.857L143.407 191.905L143.449 183.696L157.207 183.766L157.166 191.975L166.624 192.023L166.583 200.137L176.15 200.186L175.918 245.816L162.159 245.746L162.242 229.422L137.95 229.299L137.867 245.622L124.216 245.553ZM138.016 216.221L162.309 216.344L162.366 204.985L152.907 204.937L152.949 196.822L147.574 196.795L147.533 204.909L138.074 204.861L138.016 216.221Z" fill="#D4E8F1"/>
<path d="M62.7045 245.24L62.9778 191.496L72.4367 191.544L72.4785 183.335L105.155 183.501L105.113 191.711L114.68 191.759L114.531 220.97L104.965 220.921L104.923 229.131L76.4384 228.986L76.3554 245.31L62.7045 245.24ZM76.505 215.908L100.797 216.032L100.896 196.558L76.604 196.434L76.505 215.908Z" fill="#D4E8F1"/>
<path d="M439.743 312.967L439.784 304.852L430.062 304.803L430.294 259.173L440.016 259.223L440.058 251.013L473.644 251.184L473.602 259.393L483.435 259.443L483.369 272.426L469.228 272.354L469.269 264.24L444.3 264.113L444.242 275.568L463.797 275.668L463.732 288.555L444.176 288.455L444.118 300.006L469.086 300.133L469.128 291.923L483.27 291.995L483.203 305.073L473.37 305.023L473.329 313.137L439.743 312.967Z" fill="#D4E8F1"/>
<path d="M386.241 312.694L386.49 263.819L381.076 263.791L381.035 271.905L367.004 271.834L367.07 258.852L376.792 258.901L376.834 250.691L410.42 250.862L410.379 259.072L420.211 259.122L420.145 272.104L406.004 272.032L406.045 263.918L400.632 263.891L400.383 312.766L386.241 312.694Z" fill="#D4E8F1"/>
<path d="M306.809 312.29L307.041 266.661L316.763 266.71L316.804 258.596L326.527 258.645L326.568 250.436L340.71 250.508L340.668 258.717L350.39 258.767L350.349 266.881L360.182 266.931L359.95 312.561L345.808 312.489L345.891 296.165L320.923 296.038L320.84 312.362L306.809 312.29ZM320.989 282.96L345.958 283.087L346.016 271.727L336.293 271.678L336.335 263.564L330.811 263.536L330.769 271.65L321.047 271.6L320.989 282.96Z" fill="#D4E8F1"/>
<path d="M249.962 312.001L250.003 303.887L240.281 303.838L240.555 249.998L254.586 250.07L254.337 299.041L279.306 299.168L279.347 290.958L293.489 291.03L293.422 304.108L283.59 304.058L283.548 312.172L249.962 312.001Z" fill="#D4E8F1"/>
<path d="M183.393 311.663L183.435 303.549L173.712 303.499L173.986 249.66L188.017 249.731L187.768 298.702L212.737 298.829L212.778 290.62L226.92 290.691L226.854 303.769L217.021 303.719L216.979 311.833L183.393 311.663Z" fill="#D4E8F1"/>
<path d="M107.102 311.275L107.334 265.645L117.056 265.694L117.097 257.58L126.82 257.63L126.861 249.42L141.003 249.492L140.961 257.702L150.683 257.751L150.642 265.865L160.475 265.915L160.243 311.545L146.101 311.473L146.184 295.149L121.216 295.022L121.133 311.346L107.102 311.275ZM121.282 281.944L146.251 282.071L146.309 270.712L136.586 270.662L136.628 262.548L131.104 262.52L131.062 270.634L121.34 270.585L121.282 281.944Z" fill="#D4E8F1"/>
<path d="M43.8779 310.953L44.1512 257.209L53.8735 257.259L53.9153 249.049L87.5014 249.22L87.4597 257.43L97.2924 257.48L97.1439 286.69L87.3111 286.64L87.2693 294.85L57.992 294.701L57.909 311.025L43.8779 310.953ZM58.0585 281.623L83.0271 281.75L83.1262 262.276L58.1575 262.149L58.0585 281.623Z" fill="#D4E8F1"/>
<path d="M434.554 378.95L434.595 370.836L426.823 370.797L427.055 325.167L434.827 325.206L434.869 316.997L461.717 317.133L461.676 325.343L469.536 325.383L469.47 338.365L458.165 338.308L458.207 330.194L438.247 330.092L438.188 341.548L453.821 341.627L453.755 354.514L438.123 354.435L438.064 365.985L458.024 366.087L458.066 357.877L469.37 357.935L469.304 371.013L461.444 370.973L461.402 379.087L434.554 378.95Z" fill="#D4E8F1"/>
<path d="M391.784 378.733L392.033 329.857L387.705 329.835L387.664 337.949L376.448 337.892L376.514 324.91L384.286 324.949L384.327 316.74L411.176 316.876L411.134 325.086L418.995 325.126L418.929 338.108L407.624 338.051L407.665 329.937L403.338 329.915L403.089 378.79L391.784 378.733Z" fill="#D4E8F1"/>
<path d="M328.286 378.41L328.518 332.78L336.29 332.819L336.331 324.705L344.103 324.745L344.145 316.535L355.45 316.593L355.408 324.802L363.18 324.842L363.139 332.956L370.999 332.996L370.767 378.626L359.462 378.568L359.545 362.245L339.585 362.143L339.502 378.467L328.286 378.41ZM339.652 349.065L359.612 349.167L359.669 337.807L351.897 337.767L351.939 329.653L347.523 329.631L347.481 337.745L339.709 337.705L339.652 349.065Z" fill="#D4E8F1"/>
<path d="M282.843 378.179L282.884 370.065L275.112 370.025L275.386 316.186L286.602 316.243L286.353 365.214L306.313 365.315L306.355 357.106L317.659 357.163L317.593 370.241L309.733 370.201L309.691 378.315L282.843 378.179Z" fill="#D4E8F1"/>
<path d="M229.627 377.908L229.669 369.794L221.897 369.754L222.17 315.915L233.387 315.972L233.138 364.943L253.098 365.044L253.14 356.835L264.444 356.892L264.378 369.97L256.517 369.93L256.476 378.045L229.627 377.908Z" fill="#D4E8F1"/>
<path d="M168.64 377.598L168.872 331.968L176.644 332.008L176.685 323.893L184.457 323.933L184.499 315.723L195.804 315.781L195.762 323.991L203.534 324.03L203.493 332.144L211.353 332.184L211.121 377.814L199.816 377.756L199.899 361.433L179.939 361.331L179.856 377.655L168.64 377.598ZM180.006 348.253L199.966 348.355L200.023 336.995L192.251 336.956L192.293 328.841L187.877 328.819L187.836 336.933L180.064 336.894L180.006 348.253Z" fill="#D4E8F1"/>
<path d="M118.099 377.341L118.372 323.597L126.144 323.636L126.186 315.427L153.035 315.563L152.993 323.773L160.853 323.813L160.705 353.024L152.844 352.984L152.802 361.193L129.398 361.074L129.315 377.398L118.099 377.341ZM129.465 347.996L149.425 348.098L149.524 328.624L129.564 328.522L129.465 347.996Z" fill="#D4E8F1"/>
<path d="M365.007 446.052L365.048 437.938L359.74 437.911L359.972 392.281L365.28 392.308L365.322 384.099L383.659 384.192L383.617 392.402L388.986 392.429L388.92 405.411L381.199 405.372L381.24 397.258L367.608 397.189L367.55 408.644L378.226 408.698L378.161 421.585L367.484 421.531L367.426 433.082L381.058 433.151L381.099 424.941L388.82 424.981L388.754 438.059L383.385 438.031L383.344 446.146L365.007 446.052Z" fill="#D4E8F1"/>
<path d="M335.797 445.904L336.045 397.028L333.09 397.013L333.048 405.127L325.388 405.088L325.454 392.106L330.762 392.133L330.804 383.923L349.141 384.017L349.099 392.226L354.467 392.253L354.401 405.236L346.681 405.197L346.722 397.083L343.766 397.068L343.518 445.943L335.797 445.904Z" fill="#D4E8F1"/>
<path d="M292.429 445.683L292.661 400.053L297.969 400.08L298.011 391.966L303.319 391.993L303.36 383.784L311.081 383.823L311.039 392.033L316.347 392.06L316.306 400.174L321.675 400.201L321.443 445.831L313.722 445.792L313.805 429.468L300.173 429.399L300.09 445.722L292.429 445.683ZM300.239 416.32L313.871 416.39L313.929 405.03L308.621 405.003L308.662 396.889L305.646 396.874L305.605 404.988L300.297 404.961L300.239 416.32Z" fill="#D4E8F1"/>
<path d="M261.393 445.525L261.434 437.411L256.126 437.384L256.4 383.545L264.061 383.584L263.812 432.555L277.444 432.624L277.485 424.414L285.206 424.454L285.14 437.532L279.771 437.504L279.73 445.619L261.393 445.525Z" fill="#D4E8F1"/>
<path d="M225.049 445.34L225.09 437.226L219.782 437.199L220.056 383.36L227.716 383.399L227.467 432.37L241.099 432.439L241.141 424.23L248.862 424.269L248.795 437.347L243.427 437.32L243.386 445.434L225.049 445.34Z" fill="#D4E8F1"/>
<path d="M183.396 445.129L183.628 399.499L188.936 399.526L188.978 391.412L194.286 391.439L194.327 383.229L202.048 383.268L202.006 391.478L207.314 391.505L207.273 399.619L212.642 399.646L212.41 445.276L204.689 445.237L204.772 428.913L191.14 428.844L191.057 445.168L183.396 445.129ZM191.206 415.766L204.838 415.835L204.896 404.476L199.588 404.449L199.629 396.334L196.613 396.319L196.572 404.433L191.264 404.406L191.206 415.766Z" fill="#D4E8F1"/>
<path d="M148.878 444.953L149.151 391.209L154.459 391.236L154.501 383.027L172.838 383.12L172.796 391.329L178.165 391.357L178.016 420.568L172.648 420.54L172.606 428.75L156.621 428.668L156.538 444.992L148.878 444.953ZM156.688 415.59L170.32 415.66L170.419 396.186L156.787 396.117L156.688 415.59Z" fill="#D4E8F1"/>
<path d="M99.2641 397.418L99.3227 385.888L97.468 385.878L97.7978 321.04L99.6525 321.049L99.7118 309.384L106.119 309.416L106.06 321.082L107.935 321.091L107.842 339.539L105.144 339.525L105.203 327.996L100.439 327.971L100.356 344.249L104.087 344.268L103.994 362.58L100.263 362.561L100.18 378.974L104.943 378.998L105.002 367.333L107.7 367.347L107.606 385.93L105.73 385.92L105.671 397.45L99.2641 397.418Z" fill="#D4E8F1"/>
<path d="M89.0575 397.366L89.4107 327.915L88.378 327.91L88.3194 339.44L85.6427 339.426L85.7365 320.978L87.5912 320.988L87.6505 309.322L94.0577 309.355L93.9984 321.02L95.8742 321.03L95.7803 339.478L93.0826 339.464L93.1412 327.934L92.1085 327.929L91.7553 397.38L89.0575 397.366Z" fill="#D4E8F1"/>
<path d="M73.9043 397.289L74.2341 332.45L76.0888 332.46L76.1474 320.93L78.0021 320.939L78.0614 309.274L80.7592 309.287L80.6999 320.953L82.5546 320.962L82.4959 332.492L84.3717 332.502L84.042 397.34L81.3442 397.327L81.4622 374.131L76.6989 374.107L76.581 397.302L73.9043 397.289ZM76.7935 355.524L81.5567 355.548L81.6388 339.406L79.7841 339.397L79.8427 327.867L78.7889 327.861L78.7303 339.391L76.8755 339.382L76.7935 355.524Z" fill="#D4E8F1"/>
<path d="M63.0598 397.234L63.1185 385.704L61.2637 385.694L61.6528 309.19L64.3295 309.204L63.9756 378.79L68.7388 378.814L68.7982 367.149L71.4959 367.162L71.4014 385.746L69.5256 385.736L69.467 397.266L63.0598 397.234Z" fill="#D4E8F1"/>
<path d="M50.3606 397.169L50.4193 385.639L48.5646 385.63L48.9536 309.126L51.6303 309.139L51.2764 378.725L56.0396 378.75L56.099 367.084L58.7967 367.098L58.7022 385.681L56.8264 385.672L56.7678 397.202L50.3606 397.169Z" fill="#D4E8F1"/>
<path d="M35.8066 397.095L36.1363 332.256L37.991 332.266L38.0497 320.736L39.9044 320.745L39.9637 309.08L42.6615 309.094L42.6021 320.759L44.4568 320.769L44.3982 332.298L46.274 332.308L45.9442 397.147L43.2465 397.133L43.3644 373.937L38.6012 373.913L38.4832 397.109L35.8066 397.095ZM38.6957 355.33L43.4589 355.354L43.541 339.212L41.6863 339.203L41.745 327.673L40.6912 327.668L40.6325 339.197L38.7778 339.188L38.6957 355.33Z" fill="#D4E8F1"/>
<path d="M23.7456 397.034L24.134 320.665L25.9887 320.675L26.048 309.009L32.4552 309.042L32.3958 320.707L34.2716 320.717L34.0605 362.224L32.1847 362.215L32.1254 373.88L26.5402 373.852L26.4222 397.047L23.7456 397.034ZM26.6347 355.268L31.3979 355.293L31.5387 327.621L26.7754 327.597L26.6347 355.268Z" fill="#D4E8F1"/>
<path d="M162.396 186.418L162.435 178.855L160.58 178.845L160.797 136.314L162.651 136.323L162.69 128.671L169.097 128.704L169.058 136.356L170.934 136.365L170.873 148.466L168.175 148.453L168.213 140.89L163.45 140.865L163.396 151.543L167.126 151.562L167.065 163.574L163.335 163.555L163.28 174.321L168.043 174.345L168.082 166.693L170.78 166.707L170.718 178.897L168.842 178.887L168.804 186.45L162.396 186.418Z" fill="#D4E8F1"/>
<path d="M152.19 186.366L152.421 140.809L151.389 140.804L151.35 148.367L148.673 148.353L148.735 136.252L150.59 136.262L150.629 128.61L157.036 128.642L156.997 136.294L158.873 136.304L158.811 148.405L156.113 148.391L156.152 140.828L155.119 140.823L154.887 186.38L152.19 186.366Z" fill="#D4E8F1"/>
<path d="M137.036 186.289L137.253 143.757L139.107 143.767L139.146 136.204L141.001 136.213L141.039 128.561L143.737 128.575L143.698 136.227L145.553 136.236L145.515 143.799L147.39 143.809L147.174 186.34L144.476 186.327L144.554 171.111L139.79 171.087L139.713 186.302L137.036 186.289ZM139.852 158.897L144.616 158.921L144.669 148.333L142.815 148.324L142.853 140.761L141.799 140.755L141.761 148.318L139.906 148.309L139.852 158.897Z" fill="#D4E8F1"/>
<path d="M126.192 186.234L126.23 178.67L124.376 178.661L124.631 128.478L127.308 128.491L127.075 174.137L131.839 174.161L131.878 166.509L134.575 166.523L134.513 178.713L132.637 178.703L132.599 186.266L126.192 186.234Z" fill="#D4E8F1"/>
<path d="M113.493 186.169L113.531 178.606L111.676 178.596L111.932 128.413L114.608 128.427L114.376 174.072L119.139 174.096L119.178 166.444L121.876 166.458L121.814 178.648L119.938 178.638L119.9 186.202L113.493 186.169Z" fill="#D4E8F1"/>
<path d="M98.9387 186.095L99.155 143.564L101.01 143.573L101.048 136.01L102.903 136.019L102.942 128.367L105.64 128.381L105.601 136.033L107.455 136.043L107.417 143.606L109.293 143.615L109.076 186.147L106.379 186.133L106.456 170.918L101.693 170.893L101.615 186.109L98.9387 186.095ZM101.755 158.703L106.518 158.728L106.572 148.139L104.717 148.13L104.756 140.567L103.702 140.561L103.663 148.125L101.809 148.115L101.755 158.703Z" fill="#D4E8F1"/>
<path d="M86.8777 186.034L87.1324 135.939L88.9871 135.949L89.0261 128.297L95.4332 128.329L95.3943 135.981L97.2701 135.991L97.1316 163.218L95.2558 163.208L95.2169 170.86L89.6317 170.832L89.5544 186.047L86.8777 186.034ZM89.6937 158.642L94.4569 158.666L94.5493 140.515L89.786 140.491L89.6937 158.642Z" fill="#D4E8F1"/>
<path d="M491.246 352.751L488.953 350.24L486.354 352.613L473.462 338.493L476.062 336.12L473.742 333.579L482.722 325.38L485.042 327.921L487.671 325.52L491.339 329.538L487.558 332.99L485.265 330.479L478.589 336.574L481.825 340.119L487.054 335.345L490.695 339.333L485.466 344.107L488.73 347.681L495.406 341.586L493.086 339.046L496.868 335.594L500.562 339.641L497.933 342.041L500.226 344.552L491.246 352.751Z" fill="#83B1CA"/>
<path d="M476.94 365.811L463.132 350.687L461.684 352.008L463.977 354.519L460.225 357.944L456.557 353.927L459.157 351.554L456.837 349.013L465.818 340.814L468.137 343.355L470.766 340.954L474.434 344.972L470.653 348.424L468.36 345.913L466.913 347.235L480.721 362.359L476.94 365.811Z" fill="#83B1CA"/>
<path d="M455.702 385.202L442.81 371.082L445.41 368.708L443.117 366.197L445.717 363.824L443.397 361.284L447.179 357.831L449.498 360.372L452.098 357.999L454.39 360.509L457.019 358.109L469.911 372.229L466.13 375.681L461.518 370.63L454.842 376.725L459.453 381.777L455.702 385.202ZM451.147 372.678L457.823 366.583L454.613 363.068L452.014 365.441L449.721 362.93L448.244 364.279L450.537 366.79L447.937 369.163L451.147 372.678Z" fill="#83B1CA"/>
<path d="M440.502 399.079L438.21 396.568L435.61 398.941L420.399 382.281L424.151 378.856L437.987 394.01L444.663 387.914L442.343 385.374L446.124 381.922L449.819 385.969L447.19 388.369L449.483 390.88L440.502 399.079Z" fill="#83B1CA"/>
<path d="M422.703 415.329L420.411 412.818L417.811 415.192L402.6 398.531L406.352 395.106L420.187 410.26L426.863 404.165L424.544 401.624L428.325 398.172L432.02 402.219L429.391 404.62L431.683 407.13L422.703 415.329Z" fill="#83B1CA"/>
<path d="M402.305 433.953L389.413 419.833L392.013 417.46L389.72 414.949L392.32 412.575L390 410.035L393.781 406.583L396.101 409.123L398.7 406.75L400.993 409.261L403.622 406.86L416.513 420.981L412.732 424.433L408.12 419.381L401.444 425.477L406.056 430.528L402.305 433.953ZM397.749 421.43L404.426 415.334L401.216 411.819L398.617 414.193L396.324 411.682L394.847 413.03L397.14 415.541L394.54 417.914L397.749 421.43Z" fill="#83B1CA"/>
<path d="M385.4 449.387L370.216 432.756L372.815 430.383L370.496 427.842L379.476 419.643L381.796 422.184L384.425 419.783L392.677 428.823L390.048 431.223L392.368 433.763L384.54 440.91L389.152 445.962L385.4 449.387ZM380.845 436.863L387.521 430.768L382.019 424.742L375.343 430.837L380.845 436.863Z" fill="#83B1CA"/>
<path d="M511.154 171.133L507.754 171.078L507.697 174.598L488.58 174.288L488.637 170.769L485.197 170.713L485.394 158.555L488.834 158.61L488.891 155.051L494.33 155.139L494.248 160.258L490.848 160.203L490.702 169.242L495.501 169.32L495.616 162.241L501.015 162.328L500.9 169.407L505.74 169.485L505.886 160.447L502.447 160.391L502.529 155.272L508.009 155.36L507.951 158.92L511.351 158.975L511.154 171.133Z" fill="#83B1CA"/>
<path d="M510.84 190.501L490.363 190.17L490.331 192.13L493.731 192.185L493.649 197.264L488.209 197.176L488.266 193.656L484.827 193.601L485.024 181.442L488.463 181.498L488.521 177.938L493.96 178.026L493.877 183.146L490.478 183.091L490.446 185.051L510.923 185.382L510.84 190.501Z" fill="#83B1CA"/>
<path d="M510.375 219.256L491.258 218.947L491.314 215.427L487.915 215.372L487.972 211.853L484.532 211.797L484.615 206.678L488.055 206.733L488.112 203.214L491.511 203.269L491.569 199.709L510.686 200.019L510.604 205.138L503.764 205.027L503.618 214.066L510.457 214.177L510.375 219.256ZM498.139 213.978L498.285 204.939L493.526 204.862L493.469 208.381L490.069 208.326L490.037 210.326L493.436 210.381L493.379 213.901L498.139 213.978Z" fill="#83B1CA"/>
<path d="M510.042 239.835L506.642 239.78L506.585 243.3L484.028 242.935L484.111 237.855L504.628 238.187L504.774 229.148L501.335 229.093L501.418 223.973L506.897 224.062L506.839 227.622L510.239 227.677L510.042 239.835Z" fill="#83B1CA"/>
<path d="M509.652 263.934L506.252 263.879L506.195 267.398L483.638 267.033L483.721 261.954L504.238 262.286L504.384 253.247L500.945 253.191L501.028 248.072L506.507 248.161L506.449 251.72L509.849 251.775L509.652 263.934Z" fill="#83B1CA"/>
<path d="M509.205 291.551L490.088 291.242L490.145 287.723L486.745 287.668L486.802 284.148L483.362 284.092L483.445 278.973L486.885 279.029L486.942 275.509L490.341 275.564L490.399 272.005L509.516 272.314L509.434 277.433L502.594 277.323L502.448 286.361L509.287 286.472L509.205 291.551ZM496.969 286.273L497.115 277.234L492.356 277.157L492.299 280.676L488.899 280.621L488.867 282.621L492.266 282.676L492.209 286.196L496.969 286.273Z" fill="#83B1CA"/>
<path d="M508.835 314.439L486.318 314.075L486.375 310.555L482.935 310.5L483.132 298.341L486.571 298.397L486.629 294.837L498.867 295.035L498.81 298.595L502.249 298.65L502.078 309.249L508.917 309.36L508.835 314.439ZM496.598 309.16L496.745 300.122L488.586 299.99L488.44 309.028L496.598 309.16Z" fill="#83B1CA"/>
<path d="M46.5086 244.621L43.1182 244.366L42.8543 247.876L23.7881 246.443L24.052 242.933L20.6216 242.675L21.5332 230.549L24.9635 230.807L25.2304 227.257L30.6551 227.665L30.2713 232.771L26.8808 232.516L26.2032 241.53L30.9897 241.89L31.5204 234.83L36.9052 235.235L36.3745 242.295L41.2008 242.658L41.8785 233.643L38.4482 233.385L38.832 228.28L44.2966 228.691L44.0297 232.241L47.4201 232.495L46.5086 244.621Z" fill="#83B1CA"/>
<path d="M45.0565 263.937L24.6341 262.402L24.4872 264.357L27.8776 264.611L27.4968 269.677L22.0721 269.269L22.336 265.759L18.9057 265.501L19.8172 253.376L23.2476 253.633L23.5144 250.083L28.9391 250.491L28.5553 255.597L25.1649 255.342L25.0179 257.297L45.4403 258.832L45.0565 263.937Z" fill="#83B1CA"/>
<path d="M42.9007 292.615L23.8345 291.182L24.0983 287.672L20.7079 287.417L20.9718 283.907L17.5414 283.649L17.9253 278.543L21.3556 278.801L21.6194 275.291L25.0099 275.546L25.2768 271.996L44.343 273.429L43.9591 278.535L37.1384 278.022L36.4607 287.037L43.2815 287.549L42.9007 292.615ZM30.9961 286.626L31.6738 277.611L26.9272 277.255L26.6633 280.765L23.2729 280.51L23.123 282.504L26.5134 282.759L26.2495 286.269L30.9961 286.626Z" fill="#83B1CA"/>
<path d="M41.3578 313.139L37.9674 312.884L37.7035 316.394L15.207 314.703L15.5878 309.637L36.0501 311.175L36.7277 302.161L33.2974 301.903L33.6812 296.797L39.1458 297.208L38.8789 300.758L42.2694 301.013L41.3578 313.139Z" fill="#83B1CA"/>
<path d="M39.5511 337.173L36.1606 336.918L35.8968 340.428L13.4002 338.737L13.7811 333.671L34.2433 335.209L34.921 326.195L31.4907 325.937L31.8745 320.831L37.3391 321.242L37.0722 324.792L40.4626 325.047L39.5511 337.173Z" fill="#83B1CA"/>
<path d="M37.4805 364.716L18.4143 363.283L18.6781 359.773L15.2877 359.518L15.5516 356.008L12.1213 355.75L12.5051 350.645L15.9354 350.902L16.1993 347.392L19.5897 347.647L19.8566 344.097L38.9228 345.531L38.539 350.636L31.7182 350.123L31.0405 359.138L37.8613 359.651L37.4805 364.716ZM25.5759 358.727L26.2536 349.713L21.507 349.356L21.2431 352.866L17.8527 352.611L17.7028 354.605L21.0932 354.86L20.8293 358.37L25.5759 358.727Z" fill="#83B1CA"/>
<path d="M35.7645 387.543L13.3079 385.854L13.5718 382.344L10.1414 382.086L11.053 369.961L14.4833 370.219L14.7502 366.669L26.9557 367.586L26.6889 371.136L30.1192 371.394L29.3246 381.964L36.1453 382.477L35.7645 387.543ZM23.86 381.553L24.5377 372.539L16.4006 371.927L15.723 380.942L23.86 381.553Z" fill="#83B1CA"/>
<path d="M89.1395 164.043L86.8133 162.649L85.8934 164.184L72.812 156.346L73.732 154.81L71.3785 153.4L74.5566 148.096L76.9101 149.507L77.8405 147.954L81.5624 150.184L80.2243 152.417L77.8981 151.023L75.5354 154.966L78.8194 156.934L80.6698 153.846L84.3644 156.06L82.514 159.148L85.8253 161.132L88.188 157.189L85.8344 155.779L87.1726 153.546L90.9218 155.792L89.9914 157.345L92.3176 158.739L89.1395 164.043Z" fill="#83B1CA"/>
<path d="M84.0768 172.492L70.065 164.096L69.5528 164.95L71.879 166.344L70.5513 168.56L66.8294 166.33L67.7494 164.795L65.3958 163.384L68.5739 158.08L70.9274 159.491L71.8579 157.938L75.5798 160.168L74.2416 162.401L71.9154 161.007L71.4032 161.862L85.415 170.258L84.0768 172.492Z" fill="#83B1CA"/>
<path d="M76.5604 185.035L63.4791 177.197L64.3991 175.662L62.0729 174.268L62.9929 172.732L60.6394 171.322L61.9775 169.089L64.331 170.499L65.251 168.964L67.5772 170.358L68.5076 168.805L81.5889 176.643L80.2508 178.877L75.5711 176.072L73.2084 180.015L77.8881 182.82L76.5604 185.035ZM69.4592 177.769L71.8218 173.826L68.5652 171.874L67.6452 173.41L65.319 172.016L64.7963 172.888L67.1225 174.282L66.2025 175.817L69.4592 177.769Z" fill="#83B1CA"/>
<path d="M71.1814 194.012L68.8552 192.618L67.9352 194.154L52.5004 184.905L53.8281 182.689L67.8672 191.102L70.2299 187.159L67.8763 185.748L69.2145 183.515L72.9637 185.762L72.0333 187.315L74.3595 188.708L71.1814 194.012Z" fill="#83B1CA"/>
<path d="M64.8821 204.525L62.5559 203.131L61.636 204.666L46.2011 195.417L47.5288 193.202L61.5679 201.614L63.9306 197.671L61.5771 196.261L62.9152 194.028L66.6644 196.274L65.734 197.827L68.0602 199.221L64.8821 204.525Z" fill="#83B1CA"/>
<path d="M57.6633 216.572L44.582 208.734L45.502 207.199L43.1758 205.805L44.0958 204.269L41.7423 202.859L43.0804 200.626L45.4339 202.036L46.3539 200.501L48.6801 201.895L49.6105 200.342L62.6918 208.18L61.3537 210.414L56.674 207.609L54.3113 211.552L58.991 214.357L57.6633 216.572ZM50.5621 209.306L52.9247 205.363L49.6681 203.412L48.7481 204.947L46.4219 203.553L45.8992 204.425L48.2254 205.819L47.3054 207.355L50.5621 209.306Z" fill="#83B1CA"/>
<path d="M51.6806 226.557L36.2731 217.324L37.1931 215.789L34.8395 214.379L38.0176 209.075L40.3712 210.485L41.3016 208.932L49.6758 213.95L48.7454 215.503L51.0989 216.913L48.3286 221.537L53.0083 224.341L51.6806 226.557ZM44.5793 219.29L46.942 215.347L41.3592 212.002L38.9965 215.945L44.5793 219.29Z" fill="#83B1CA"/>
<path d="M164.8 121.158L163.68 118.689L162.049 119.428L155.751 105.539L157.381 104.8L156.248 102.301L161.879 99.7477L163.012 102.246L164.661 101.499L166.453 105.45L164.082 106.526L162.962 104.056L158.776 105.954L160.357 109.441L163.635 107.954L165.414 111.877L162.136 113.364L163.73 116.879L167.916 114.981L166.783 112.482L169.154 111.407L170.959 115.387L169.311 116.135L170.431 118.605L164.8 121.158Z" fill="#83B1CA"/>
<path d="M155.829 125.226L149.083 110.35L148.175 110.762L149.295 113.231L146.943 114.298L145.151 110.347L146.781 109.607L145.648 107.109L151.279 104.555L152.412 107.054L154.06 106.306L155.852 110.258L153.482 111.333L152.361 108.863L151.454 109.275L158.2 124.151L155.829 125.226Z" fill="#83B1CA"/>
<path d="M142.511 131.266L136.213 117.377L137.843 116.638L136.723 114.168L138.353 113.429L137.22 110.93L139.591 109.855L140.724 112.354L142.354 111.615L143.474 114.084L145.123 113.337L151.421 127.225L149.05 128.301L146.797 123.332L142.611 125.231L144.864 130.199L142.511 131.266ZM140.806 121.25L144.992 119.352L143.424 115.894L141.794 116.633L140.674 114.163L139.748 114.583L140.868 117.053L139.237 117.792L140.806 121.25Z" fill="#83B1CA"/>
<path d="M132.981 135.588L131.86 133.119L130.23 133.858L122.799 117.471L125.151 116.404L131.911 131.309L136.097 129.411L134.964 126.912L137.335 125.837L139.14 129.817L137.492 130.565L138.612 133.035L132.981 135.588Z" fill="#83B1CA"/>
<path d="M121.819 140.65L120.699 138.18L119.069 138.919L111.638 122.532L113.99 121.465L120.75 136.371L124.936 134.472L123.803 131.973L126.174 130.898L127.979 134.879L126.33 135.626L127.45 138.096L121.819 140.65Z" fill="#83B1CA"/>
<path d="M109.028 146.451L102.73 132.562L104.36 131.823L103.24 129.353L104.87 128.614L103.737 126.115L106.108 125.04L107.241 127.539L108.871 126.799L109.991 129.269L111.64 128.522L117.938 142.41L115.567 143.485L113.314 138.517L109.128 140.415L111.381 145.384L109.028 146.451ZM107.323 136.435L111.509 134.536L109.941 131.079L108.311 131.818L107.191 129.348L106.265 129.768L107.385 132.238L105.754 132.977L107.323 136.435Z" fill="#83B1CA"/>
<path d="M98.428 151.258L91.0095 134.9L92.6396 134.16L91.5064 131.662L97.1375 129.108L98.2707 131.607L99.9193 130.859L103.951 139.75L102.303 140.498L103.436 142.996L98.5273 145.222L100.78 150.191L98.428 151.258ZM96.7221 141.242L100.908 139.343L98.2203 133.416L94.034 135.315L96.7221 141.242Z" fill="#83B1CA"/>
<path d="M54.1653 425.524L55.9796 423.508L54.6493 422.311L64.852 410.976L66.1822 412.174L68.0179 410.135L72.6134 414.271L70.7778 416.311L72.1232 417.522L69.2203 420.746L67.2854 419.005L69.0996 416.989L65.6832 413.914L63.1219 416.759L65.7976 419.168L62.9161 422.369L60.2404 419.96L57.6577 422.83L61.0741 425.905L62.9097 423.866L64.8447 425.607L61.9205 428.856L60.5751 427.645L58.7608 429.66L54.1653 425.524Z" fill="#83B1CA"/>
<path d="M46.8448 418.934L57.7732 406.793L57.0324 406.127L55.2181 408.142L53.2983 406.414L56.2012 403.189L57.5314 404.387L59.3671 402.347L63.9626 406.484L62.127 408.523L63.4724 409.734L60.5695 412.959L58.6345 411.218L60.4488 409.202L59.7081 408.535L48.7797 420.676L46.8448 418.934Z" fill="#83B1CA"/>
<path d="M35.9762 409.151L46.1789 397.816L47.5092 399.014L49.3234 396.998L50.6537 398.196L52.4893 396.156L54.4243 397.898L52.5887 399.937L53.919 401.135L52.1047 403.15L53.4501 404.361L43.2474 415.696L41.3125 413.954L44.9624 409.899L41.546 406.824L37.8961 410.879L35.9762 409.151ZM44.4702 403.575L47.8866 406.651L50.4266 403.829L49.0963 402.632L50.9106 400.616L50.1547 399.936L48.3404 401.951L47.0102 400.754L44.4702 403.575Z" fill="#83B1CA"/>
<path d="M28.198 402.149L30.0123 400.134L28.682 398.936L40.7203 385.562L42.6401 387.291L31.6904 399.455L35.1068 402.53L36.9425 400.491L38.8774 402.233L35.9532 405.481L34.6078 404.27L32.7936 406.286L28.198 402.149Z" fill="#83B1CA"/>
<path d="M19.0896 393.95L20.9039 391.934L19.5736 390.737L31.6119 377.363L33.5317 379.091L22.582 391.256L25.9984 394.331L27.834 392.292L29.769 394.034L26.8448 397.282L25.4994 396.071L23.6851 398.086L19.0896 393.95Z" fill="#83B1CA"/>
<path d="M8.65084 384.554L18.8535 373.219L20.1838 374.417L21.998 372.401L23.3283 373.599L25.164 371.559L27.0989 373.301L25.2633 375.34L26.5936 376.538L24.7793 378.553L26.1247 379.764L15.922 391.099L13.9871 389.357L17.637 385.302L14.2206 382.227L10.5707 386.282L8.65084 384.554ZM17.1448 378.978L20.5612 382.054L23.1012 379.232L21.7709 378.035L23.5852 376.019L22.8293 375.339L21.015 377.354L19.6848 376.157L17.1448 378.978Z" fill="#83B1CA"/>
<path d="M0 376.766L12.0169 363.417L13.3472 364.614L15.1828 362.575L19.7784 366.711L17.9427 368.751L19.2881 369.962L12.7567 377.218L11.4113 376.007L9.5757 378.046L5.56974 374.44L1.91984 378.495L0 376.766ZM8.49393 371.191L11.9103 374.267L16.2646 369.429L12.8482 366.354L8.49393 371.191Z" fill="#83B1CA"/>
<path d="M146.044 409.142L147.858 407.126L146.528 405.929L156.73 394.594L158.061 395.792L159.896 393.753L164.492 397.889L162.656 399.929L164.001 401.14L161.099 404.364L159.164 402.623L160.978 400.607L157.562 397.532L155 400.377L157.676 402.786L154.794 405.987L152.119 403.578L149.536 406.448L152.952 409.523L154.788 407.484L156.723 409.225L153.799 412.474L152.453 411.263L150.639 413.278L146.044 409.142Z" fill="#83B1CA"/>
<path d="M138.723 402.552L149.651 390.411L148.911 389.745L147.096 391.76L145.177 390.032L148.079 386.807L149.41 388.005L151.245 385.965L155.841 390.102L154.005 392.141L155.351 393.352L152.448 396.577L150.513 394.836L152.327 392.82L151.586 392.153L140.658 404.294L138.723 402.552Z" fill="#83B1CA"/>
<path d="M127.855 392.769L138.057 381.434L139.387 382.632L141.202 380.616L142.532 381.814L144.368 379.774L146.303 381.516L144.467 383.555L145.797 384.753L143.983 386.768L145.328 387.979L135.126 399.314L133.191 397.572L136.841 393.517L133.424 390.442L129.774 394.497L127.855 392.769ZM136.348 387.193L139.765 390.269L142.305 387.447L140.975 386.25L142.789 384.234L142.033 383.554L140.219 385.569L138.888 384.372L136.348 387.193Z" fill="#83B1CA"/>
<path d="M120.076 385.767L121.891 383.752L120.56 382.554L132.599 369.181L134.518 370.909L123.569 383.073L126.985 386.148L128.821 384.109L130.756 385.851L127.832 389.099L126.486 387.888L124.672 389.904L120.076 385.767Z" fill="#83B1CA"/>
<path d="M110.968 377.568L112.782 375.552L111.452 374.355L123.49 360.981L125.41 362.709L114.46 374.874L117.877 377.949L119.712 375.91L121.647 377.652L118.723 380.9L117.378 379.689L115.563 381.705L110.968 377.568Z" fill="#83B1CA"/>
<path d="M100.529 368.172L110.732 356.837L112.062 358.035L113.876 356.019L115.207 357.217L117.042 355.177L118.977 356.919L117.142 358.958L118.472 360.156L116.658 362.171L118.003 363.383L107.8 374.717L105.865 372.975L109.515 368.92L106.099 365.845L102.449 369.9L100.529 368.172ZM109.023 362.596L112.439 365.672L114.979 362.85L113.649 361.653L115.463 359.637L114.708 358.957L112.893 360.972L111.563 359.775L109.023 362.596Z" fill="#83B1CA"/>
<path d="M91.8783 360.384L103.895 347.035L105.225 348.232L107.061 346.193L111.657 350.329L109.821 352.369L111.166 353.58L104.635 360.836L103.29 359.625L101.454 361.664L97.448 358.058L93.7981 362.113L91.8783 360.384ZM100.372 354.809L103.789 357.885L108.143 353.047L104.726 349.972L100.372 354.809Z" fill="#83B1CA"/>
<path d="M119.063 365.13L116.483 363.441L115.424 365.057L100.913 355.557L101.971 353.941L99.3599 352.232L103.016 346.647L105.627 348.356L106.697 346.721L110.826 349.424L109.287 351.775L106.706 350.086L103.988 354.238L107.631 356.623L109.76 353.371L113.858 356.054L111.73 359.306L115.403 361.711L118.121 357.559L115.51 355.85L117.05 353.498L121.209 356.221L120.139 357.856L122.719 359.545L119.063 365.13Z" fill="#83B1CA"/>
<path d="M113.239 374.026L97.6954 363.851L97.1062 364.751L99.6867 366.44L98.1594 368.773L94.0305 366.07L95.0888 364.454L92.4779 362.745L96.1338 357.16L98.7447 358.869L99.815 357.234L103.944 359.937L102.405 362.288L99.824 360.599L99.2347 361.499L114.779 371.675L113.239 374.026Z" fill="#83B1CA"/>
<path d="M104.593 387.234L90.0812 377.735L91.1395 376.118L88.5589 374.429L89.6172 372.812L87.0063 371.103L88.5456 368.751L91.1565 370.461L92.2148 368.844L94.7954 370.533L95.8657 368.898L110.378 378.398L108.838 380.749L103.647 377.351L100.929 381.503L106.12 384.901L104.593 387.234ZM96.7696 378.78L99.4875 374.628L95.8747 372.263L94.8164 373.88L92.2359 372.191L91.6346 373.109L94.2151 374.798L93.1568 376.415L96.7696 378.78Z" fill="#83B1CA"/>
<path d="M98.4054 396.687L95.8248 394.998L94.7665 396.614L77.6438 385.405L79.1711 383.072L94.7455 393.267L97.4633 389.116L94.8524 387.406L96.3917 385.055L100.551 387.778L99.4807 389.413L102.061 391.102L98.4054 396.687Z" fill="#83B1CA"/>
<path d="M91.1589 407.756L88.5784 406.067L87.5201 407.683L70.3973 396.474L71.9246 394.141L87.499 404.337L90.2169 400.185L87.606 398.476L89.1453 396.124L93.3046 398.847L92.2343 400.482L94.8148 402.171L91.1589 407.756Z" fill="#83B1CA"/>
<path d="M82.8547 420.442L68.3428 410.942L69.4011 409.325L66.8205 407.636L67.8788 406.019L65.2679 404.31L66.8072 401.959L69.4182 403.668L70.4764 402.051L73.057 403.741L74.1273 402.106L88.6391 411.605L87.0998 413.957L81.9083 410.558L79.1905 414.71L84.382 418.109L82.8547 420.442ZM75.0312 411.987L77.7491 407.836L74.1363 405.471L73.078 407.087L70.4975 405.398L69.8962 406.317L72.4767 408.006L71.4184 409.622L75.0312 411.987Z" fill="#83B1CA"/>
<path d="M75.9728 430.955L58.8804 419.766L59.9386 418.149L57.3277 416.44L60.9836 410.855L63.5945 412.564L64.6648 410.929L73.9548 417.011L72.8845 418.646L75.4955 420.355L72.3086 425.223L77.5001 428.622L75.9728 430.955ZM68.1493 422.5L70.8672 418.349L64.6739 414.294L61.956 418.446L68.1493 422.5Z" fill="#83B1CA"/>
<path d="M159.558 385.768L156.656 384.723L156.044 386.423L139.725 380.548L140.337 378.848L137.401 377.791L139.514 371.919L142.451 372.976L143.069 371.257L147.713 372.929L146.823 375.401L143.921 374.356L142.349 378.722L146.446 380.197L147.677 376.778L152.286 378.437L151.055 381.856L155.186 383.343L156.758 378.978L153.821 377.921L154.712 375.448L159.389 377.132L158.77 378.851L161.672 379.896L159.558 385.768Z" fill="#83B1CA"/>
<path d="M156.19 395.122L138.71 388.829L138.37 389.775L141.272 390.82L140.388 393.273L135.745 391.601L136.357 389.902L133.421 388.844L135.535 382.973L138.471 384.03L139.09 382.311L143.733 383.982L142.843 386.455L139.941 385.41L139.6 386.356L157.08 392.649L156.19 395.122Z" fill="#83B1CA"/>
<path d="M151.191 409.009L134.871 403.134L135.483 401.434L132.581 400.389L133.193 398.689L130.257 397.632L131.147 395.16L134.083 396.217L134.695 394.517L137.597 395.562L138.216 393.843L154.536 399.718L153.645 402.191L147.807 400.089L146.236 404.454L152.074 406.556L151.191 409.009ZM141.559 402.77L143.13 398.405L139.067 396.942L138.455 398.642L135.553 397.597L135.206 398.563L138.108 399.608L137.496 401.307L141.559 402.77Z" fill="#83B1CA"/>
<path d="M147.613 418.947L144.711 417.902L144.099 419.602L124.843 412.67L125.726 410.217L143.241 416.522L144.812 412.157L141.876 411.1L142.766 408.628L147.443 410.312L146.825 412.031L149.727 413.075L147.613 418.947Z" fill="#83B1CA"/>
<path d="M143.423 430.585L140.521 429.541L139.909 431.24L120.654 424.308L121.537 421.855L139.051 428.16L140.623 423.795L137.686 422.738L138.577 420.266L143.254 421.95L142.635 423.669L145.537 424.714L143.423 430.585Z" fill="#83B1CA"/>
<path d="M138.621 443.923L122.302 438.048L122.913 436.348L120.012 435.304L120.623 433.604L117.687 432.547L118.577 430.074L121.514 431.132L122.125 429.432L125.027 430.477L125.646 428.757L141.966 434.633L141.076 437.105L135.237 435.003L133.666 439.368L139.504 441.47L138.621 443.923ZM128.989 437.685L130.56 433.319L126.497 431.857L125.885 433.556L122.984 432.512L122.636 433.477L125.538 434.522L124.926 436.222L128.989 437.685Z" fill="#83B1CA"/>
<path d="M134.642 454.977L115.42 448.057L116.032 446.357L113.096 445.3L115.21 439.428L118.146 440.485L118.765 438.766L129.212 442.527L128.593 444.246L131.529 445.303L129.687 450.422L135.525 452.524L134.642 454.977ZM125.009 448.738L126.581 444.373L119.616 441.865L118.045 446.231L125.009 448.738Z" fill="#83B1CA"/>
<path d="M388.013 114.95L388.079 111.55L383.041 111.452L383.414 92.3358L388.452 92.434L388.519 88.9947L405.923 89.334L405.856 92.7733L410.952 92.8727L410.846 98.3116L403.518 98.1688L403.584 94.7694L390.645 94.5172L390.552 99.3162L400.685 99.5138L400.58 104.913L390.446 104.715L390.352 109.554L403.291 109.807L403.358 106.367L410.686 106.51L410.579 111.989L405.484 111.89L405.417 115.289L388.013 114.95Z" fill="#83B1CA"/>
<path d="M360.289 114.409L360.688 93.9331L357.883 93.8784L357.816 97.2777L350.546 97.136L350.652 91.697L355.69 91.7952L355.757 88.3559L373.161 88.6952L373.094 92.1346L378.189 92.2339L378.083 97.6729L370.755 97.53L370.821 94.1307L368.016 94.076L367.617 114.552L360.289 114.409Z" fill="#83B1CA"/>
<path d="M319.128 113.607L319.501 94.4904L324.539 94.5886L324.605 91.1892L329.643 91.2875L329.71 87.8481L337.038 87.991L336.971 91.4303L342.009 91.5286L341.943 94.9279L347.038 95.0273L346.665 114.144L339.337 114.001L339.471 107.162L326.532 106.91L326.399 113.748L319.128 113.607ZM326.639 101.431L339.578 101.683L339.67 96.924L334.632 96.8258L334.699 93.4264L331.836 93.3706L331.77 96.77L326.732 96.6717L326.639 101.431Z" fill="#83B1CA"/>
<path d="M289.67 113.032L289.736 109.633L284.698 109.535L285.138 86.9791L292.409 87.1208L292.009 107.637L304.947 107.889L305.014 104.45L312.343 104.593L312.236 110.072L307.14 109.972L307.074 113.372L289.67 113.032Z" fill="#83B1CA"/>
<path d="M255.175 112.36L255.241 108.96L250.203 108.862L250.643 86.3065L257.913 86.4483L257.513 106.964L270.452 107.217L270.519 103.777L277.847 103.92L277.74 109.399L272.645 109.3L272.579 112.699L255.175 112.36Z" fill="#83B1CA"/>
<path d="M215.64 111.589L216.013 92.4727L221.051 92.5709L221.117 89.1716L226.156 89.2698L226.223 85.8304L233.551 85.9733L233.484 89.4127L238.522 89.5109L238.455 92.9102L243.551 93.0096L243.178 112.126L235.85 111.983L235.983 105.144L223.045 104.892L222.911 111.731L215.64 111.589ZM223.151 99.4131L236.09 99.6654L236.183 94.9063L231.145 94.8081L231.211 91.4087L228.349 91.3529L228.282 94.7523L223.244 94.6541L223.151 99.4131Z" fill="#83B1CA"/>
<path d="M182.878 110.95L183.317 88.4346L188.355 88.5328L188.422 85.0935L205.826 85.4328L205.759 88.8721L210.855 88.9715L210.616 101.209L205.521 101.11L205.454 104.549L190.282 104.253L190.149 111.092L182.878 110.95ZM190.389 98.7744L203.328 99.0266L203.487 90.8682L190.548 90.6159L190.389 98.7744Z" fill="#83B1CA"/>
<path d="M351.906 459.42L351.914 456.02L346.83 456.008L346.874 436.888L351.958 436.9L351.966 433.46L369.529 433.5L369.521 436.94L374.663 436.952L374.65 442.392L367.255 442.375L367.263 438.975L354.207 438.945L354.195 443.745L364.421 443.769L364.409 449.169L354.183 449.145L354.172 453.985L367.228 454.015L367.236 450.575L374.631 450.592L374.619 456.072L369.477 456.06L369.469 459.46L351.906 459.42Z" fill="#83B1CA"/>
<path d="M323.928 459.355L323.976 438.875L321.145 438.868L321.137 442.268L313.8 442.251L313.812 436.811L318.896 436.823L318.904 433.383L336.467 433.424L336.459 436.864L341.601 436.876L341.589 442.316L334.194 442.298L334.202 438.898L331.371 438.892L331.323 459.372L323.928 459.355Z" fill="#83B1CA"/>
<path d="M282.391 459.258L282.435 440.138L287.519 440.15L287.527 436.75L292.611 436.762L292.619 433.322L300.014 433.339L300.006 436.779L305.09 436.791L305.082 440.191L310.224 440.203L310.18 459.323L302.785 459.306L302.801 452.466L289.744 452.435L289.728 459.275L282.391 459.258ZM289.757 446.955L302.813 446.986L302.824 442.226L297.74 442.214L297.748 438.814L294.86 438.807L294.852 442.207L289.768 442.195L289.757 446.955Z" fill="#83B1CA"/>
<path d="M252.665 459.189L252.673 455.789L247.589 455.778L247.641 433.218L254.978 433.235L254.931 453.755L267.987 453.785L267.995 450.345L275.39 450.362L275.378 455.842L270.236 455.83L270.228 459.23L252.665 459.189Z" fill="#83B1CA"/>
<path d="M217.854 459.109L217.862 455.709L212.778 455.697L212.83 433.137L220.167 433.154L220.12 453.674L233.177 453.704L233.185 450.264L240.579 450.281L240.567 455.761L235.425 455.75L235.417 459.15L217.854 459.109Z" fill="#83B1CA"/>
<path d="M177.959 459.016L178.003 439.896L183.087 439.908L183.095 436.508L188.179 436.52L188.187 433.08L195.582 433.097L195.574 436.537L200.658 436.549L200.651 439.949L205.792 439.961L205.748 459.081L198.353 459.064L198.369 452.224L185.312 452.193L185.296 459.033L177.959 459.016ZM185.325 446.713L198.382 446.744L198.393 441.984L193.309 441.972L193.317 438.572L190.428 438.565L190.42 441.965L185.336 441.953L185.325 446.713Z" fill="#83B1CA"/>
<path d="M144.897 458.94L144.949 436.42L150.034 436.432L150.042 432.992L167.605 433.032L167.597 436.472L172.738 436.484L172.71 448.724L167.568 448.712L167.56 452.152L152.25 452.117L152.235 458.957L144.897 458.94ZM152.263 446.637L165.32 446.667L165.339 438.507L152.282 438.477L152.263 446.637Z" fill="#83B1CA"/>
<path d="M409.717 229.055L368.146 211.706L372.784 200.592L389.618 207.617L391.937 202.06L386.347 199.727L391.064 188.424L396.654 190.757L398.973 185.2L382.139 178.174L386.816 166.966L428.388 184.314L423.711 195.523L406.876 188.498L397.521 210.915L414.356 217.94L409.717 229.055Z" fill="#F5BB7C"/>
<path d="M389.762 276.873L384.236 274.567L380.738 282.95L372.707 279.598L377.345 268.484L382.935 270.817L392.29 248.399L383.423 244.699L372.928 269.848L367.402 267.542L363.904 275.925L350.347 270.267L353.845 261.884L348.191 259.525L359.825 231.644L365.48 234.004L369.017 225.527L376.985 228.852L372.307 240.06L366.717 237.727L357.362 260.145L366.165 263.818L376.66 238.669L382.185 240.975L385.723 232.498L399.409 238.209L395.871 246.687L401.397 248.993L389.762 276.873Z" fill="#F5BB7C"/>
<path d="M366.309 333.075L360.783 330.769L357.285 339.152L321.239 324.109L325.877 312.995L359.481 327.018L368.836 304.601L335.232 290.578L339.909 279.369L375.955 294.411L372.418 302.888L377.944 305.194L366.309 333.075Z" fill="#F5BB7C"/>
<path d="M339.357 397.659L303.439 382.671L306.938 374.288L301.284 371.928L312.918 344.048L318.573 346.407L322.11 337.93L341.193 345.894L337.656 354.371L343.31 356.73L341.62 360.781L344.832 362.121L348.291 353.833L356.259 357.157L351.66 368.178L346.134 365.872L342.557 374.443L336.903 372.084L332.815 381.879L343.995 386.545L339.357 397.659ZM324.783 378.528L334.138 356.11L319.81 350.131L310.455 372.548L324.783 378.528Z" fill="#F5BB7C"/>
<path d="M319.402 445.478L313.876 443.172L310.378 451.555L279.986 438.872L283.484 430.489L277.83 428.13L289.465 400.249L295.119 402.609L298.657 394.132L312.214 399.789L308.677 408.266L311.825 409.58L315.362 401.103L329.048 406.814L325.511 415.292L331.037 417.598L319.402 445.478ZM312.574 439.422L321.929 417.004L313.062 413.304L306.026 430.164L298.123 426.866L305.159 410.006L296.357 406.332L287.002 428.75L312.574 439.422Z" fill="#F5BB7C"/>
<path d="M356.306 383.643L339.295 374.025L341.017 370.981L347.905 374.876L348.765 373.354L346.478 372.061L348.228 368.965L350.516 370.259L351.376 368.737L344.488 364.842L346.224 361.772L363.234 371.391L361.498 374.46L354.61 370.565L351.139 376.705L358.027 380.6L356.306 383.643Z" fill="#E3A264"/>
<path d="M348.901 396.739L346.64 395.461L345.342 397.757L342.055 395.898L343.776 392.855L346.064 394.148L349.535 388.009L345.907 385.957L342.013 392.845L339.752 391.566L338.453 393.862L332.906 390.725L334.204 388.429L331.891 387.121L336.208 379.486L338.522 380.794L339.834 378.472L343.094 380.316L341.359 383.385L339.071 382.092L335.6 388.231L339.202 390.268L343.096 383.38L345.357 384.659L346.67 382.337L352.27 385.504L350.957 387.825L353.218 389.104L348.901 396.739Z" fill="#E3A264"/>
<path d="M340.198 412.131L337.937 410.853L336.638 413.148L321.889 404.809L323.61 401.765L337.361 409.54L340.832 403.4L327.082 395.625L328.818 392.556L343.567 400.896L342.254 403.217L344.515 404.496L340.198 412.131Z" fill="#E3A264"/>
<path d="M330.197 429.819L315.5 421.509L316.798 419.213L314.484 417.905L318.802 410.269L321.115 411.577L322.428 409.256L330.237 413.671L328.924 415.992L331.238 417.301L330.61 418.41L331.925 419.153L333.208 416.883L336.469 418.727L334.762 421.745L332.501 420.466L331.174 422.814L328.86 421.505L327.343 424.188L331.918 426.775L330.197 429.819ZM324.057 422.33L327.528 416.191L321.665 412.875L318.194 419.015L324.057 422.33Z" fill="#E3A264"/>
<path d="M322.791 442.915L320.53 441.636L319.232 443.932L306.797 436.9L308.095 434.605L305.781 433.296L310.099 425.661L312.412 426.969L313.725 424.647L319.272 427.784L317.96 430.106L319.248 430.834L320.561 428.513L326.161 431.679L324.848 434.001L327.109 435.279L322.791 442.915ZM319.954 440.323L323.426 434.184L319.798 432.132L317.187 436.75L313.953 434.921L316.564 430.304L312.962 428.267L309.491 434.407L319.954 440.323Z" fill="#E3A264"/>
<path d="M305.7 466.871L288.69 457.253L290.411 454.209L297.299 458.104L298.16 456.582L295.873 455.288L297.623 452.193L299.91 453.486L300.771 451.964L293.883 448.069L295.618 445L312.629 454.618L310.893 457.688L304.005 453.793L300.533 459.932L307.422 463.827L305.7 466.871Z" fill="#E3A264"/>
<path d="M298.296 479.967L296.035 478.688L294.736 480.984L291.45 479.126L293.171 476.082L295.459 477.375L298.93 471.236L295.302 469.185L291.407 476.072L289.146 474.794L287.848 477.089L282.301 473.953L283.599 471.657L281.285 470.349L285.603 462.713L287.916 464.021L289.229 461.7L292.489 463.543L290.753 466.613L288.466 465.319L284.995 471.459L288.597 473.495L292.491 466.608L294.752 467.886L296.065 465.565L301.665 468.731L300.352 471.053L302.613 472.331L298.296 479.967Z" fill="#E3A264"/>
<path d="M289.592 495.359L287.331 494.08L286.033 496.376L271.284 488.036L273.005 484.992L286.755 492.767L290.227 486.628L276.477 478.853L278.212 475.783L292.962 484.123L291.649 486.445L293.91 487.723L289.592 495.359Z" fill="#E3A264"/>
<path d="M279.591 513.046L264.895 504.736L266.193 502.44L263.879 501.132L268.197 493.497L270.51 494.805L271.823 492.483L279.631 496.898L278.319 499.22L280.632 500.528L280.005 501.637L281.32 502.381L282.603 500.111L285.863 501.954L284.157 504.972L281.896 503.694L280.568 506.041L278.255 504.733L276.738 507.416L281.312 510.002L279.591 513.046ZM273.451 505.557L276.923 499.418L271.06 496.103L267.589 502.242L273.451 505.557Z" fill="#E3A264"/>
<path d="M272.186 526.142L269.925 524.864L268.627 527.159L256.191 520.128L257.49 517.832L255.176 516.524L259.493 508.888L261.807 510.197L263.12 507.875L268.667 511.012L267.354 513.333L268.643 514.062L269.955 511.74L275.555 514.907L274.243 517.228L276.504 518.507L272.186 526.142ZM269.349 523.551L272.821 517.411L269.192 515.36L266.582 519.977L263.348 518.149L265.959 513.531L262.357 511.495L258.885 517.634L269.349 523.551Z" fill="#E3A264"/>
<path d="M398.971 298.839L381.092 290.952L382.481 287.804L389.721 290.997L390.415 289.423L388.011 288.363L389.423 285.161L391.827 286.221L392.522 284.647L385.282 281.453L386.682 278.278L404.562 286.165L403.161 289.34L395.921 286.146L393.12 292.497L400.36 295.69L398.971 298.839Z" fill="#E3A264"/>
<path d="M392.995 312.385L390.619 311.337L389.571 313.712L386.117 312.188L387.506 309.04L389.91 310.1L392.711 303.75L388.898 302.067L385.755 309.192L383.379 308.143L382.331 310.518L376.501 307.946L377.548 305.572L375.116 304.499L378.6 296.601L381.032 297.673L382.091 295.272L385.518 296.783L384.117 299.959L381.713 298.898L378.912 305.249L382.698 306.919L385.84 299.794L388.217 300.843L389.276 298.441L395.162 301.037L394.103 303.439L396.479 304.487L392.995 312.385Z" fill="#E3A264"/>
<path d="M385.973 328.306L383.596 327.258L382.548 329.633L367.046 322.795L368.435 319.646L382.887 326.021L385.688 319.671L371.236 313.296L372.636 310.12L388.139 316.959L387.08 319.36L389.456 320.408L385.973 328.306Z" fill="#E3A264"/>
<path d="M377.903 346.602L362.455 339.788L363.503 337.414L361.071 336.341L364.555 328.443L366.987 329.516L368.046 327.114L376.253 330.734L375.194 333.136L377.626 334.208L377.12 335.356L378.501 335.965L379.537 333.617L382.964 335.129L381.586 338.25L379.21 337.202L378.139 339.63L375.707 338.558L374.483 341.333L379.291 343.454L377.903 346.602ZM371.029 339.809L373.83 333.459L367.668 330.74L364.866 337.091L371.029 339.809Z" fill="#E3A264"/>
<path d="M371.927 360.149L369.551 359.1L368.503 361.475L355.432 355.71L356.48 353.335L354.048 352.262L357.532 344.364L359.964 345.437L361.023 343.035L366.854 345.607L365.794 348.009L367.148 348.606L368.208 346.205L374.094 348.801L373.035 351.202L375.411 352.251L371.927 360.149ZM368.842 357.863L371.643 351.513L367.83 349.831L365.723 354.607L362.324 353.108L364.431 348.332L360.645 346.662L357.844 353.012L368.842 357.863Z" fill="#E3A264"/>
<path d="M435.647 205.675L416.948 200.015L417.933 196.716L425.505 199.009L425.997 197.359L423.483 196.598L424.484 193.244L426.998 194.005L427.49 192.356L419.918 190.064L420.911 186.738L439.61 192.398L438.617 195.724L431.045 193.432L429.06 200.085L436.631 202.377L435.647 205.675Z" fill="#E3A264"/>
<path d="M431.412 219.866L428.926 219.114L428.184 221.601L424.571 220.508L425.556 217.209L428.07 217.971L430.055 211.318L426.067 210.111L423.84 217.574L421.354 216.821L420.612 219.309L414.514 217.463L415.256 214.975L412.713 214.206L415.182 205.932L417.726 206.702L418.476 204.186L422.06 205.271L421.067 208.597L418.553 207.836L416.567 214.489L420.527 215.687L422.754 208.224L425.24 208.976L425.991 206.461L432.146 208.324L431.396 210.84L433.881 211.592L431.412 219.866Z" fill="#E3A264"/>
<path d="M426.434 236.545L423.948 235.792L423.206 238.28L406.993 233.372L407.977 230.074L423.092 234.649L425.077 227.996L409.963 223.421L410.955 220.095L427.168 225.003L426.418 227.518L428.903 228.271L426.434 236.545Z" fill="#E3A264"/>
<path d="M420.714 255.711L404.558 250.82L405.301 248.332L402.758 247.563L405.227 239.289L407.77 240.059L408.521 237.543L417.105 240.141L416.354 242.657L418.897 243.427L418.538 244.629L419.983 245.066L420.717 242.606L424.301 243.691L423.325 246.962L420.84 246.209L420.08 248.753L417.537 247.983L416.67 250.89L421.698 252.412L420.714 255.711ZM413.057 249.796L415.042 243.144L408.598 241.193L406.612 247.846L413.057 249.796Z" fill="#E3A264"/>
<path d="M416.479 269.901L413.993 269.149L413.251 271.637L399.581 267.499L400.323 265.011L397.78 264.241L400.249 255.967L402.793 256.737L403.543 254.221L409.641 256.067L408.891 258.583L410.307 259.012L411.057 256.496L417.213 258.36L416.462 260.875L418.948 261.628L416.479 269.901ZM413.137 268.006L415.122 261.353L411.134 260.146L409.641 265.15L406.086 264.073L407.579 259.07L403.62 257.871L401.634 264.524L413.137 268.006Z" fill="#E3A264"/>
<path d="M445.454 182.242L474.094 122.945L476.545 124.129L464.947 148.141L466.173 148.733L470.024 140.759L472.517 141.963L468.666 149.937L469.891 150.529L481.489 126.517L483.961 127.711L455.32 187.008L452.848 185.814L464.446 161.802L459.503 159.414L447.905 183.426L445.454 182.242Z" fill="#BAB8B8"/>
<path d="M434.908 177.149L438.715 169.267L436.867 168.374L442.4 156.918L444.851 158.102L441 166.075L445.944 168.463L452.052 155.815L446.506 153.137L450.313 145.255L448.465 144.362L457.805 125.024L459.654 125.917L463.549 117.852L469.698 120.821L465.802 128.886L467.671 129.789L462.182 141.154L459.711 139.96L463.562 131.987L458.618 129.599L452.554 142.155L458.1 144.834L454.293 152.715L456.162 153.618L446.733 173.14L444.864 172.237L441.057 180.119L434.908 177.149Z" fill="#BAB8B8"/>
<path d="M422.515 171.163L426.322 163.281L424.473 162.388L449.307 110.972L451.758 112.156L428.606 160.089L433.55 162.477L456.702 114.544L459.173 115.738L434.34 167.153L432.47 166.25L428.663 174.132L422.515 171.163Z" fill="#BAB8B8"/>
<path d="M408.272 164.283L433.017 113.051L434.866 113.944L438.762 105.879L444.91 108.849L441.014 116.914L442.884 117.817L429.737 145.037L427.867 144.134L423.972 152.199L423.078 151.768L420.865 156.35L422.693 157.233L417.204 168.598L414.774 167.424L418.581 159.542L416.69 158.629L420.586 150.564L418.426 149.52L410.723 165.467L408.272 164.283ZM423.959 138.064L428.903 140.452L438.774 120.014L433.831 117.626L423.959 138.064Z" fill="#BAB8B8"/>
<path d="M397.727 159.19L401.534 151.308L399.685 150.415L420.623 107.065L422.472 107.958L426.367 99.8928L432.516 102.863L428.62 110.928L430.49 111.831L421.149 131.169L419.28 130.266L417.111 134.757L418.98 135.66L409.551 155.181L407.682 154.278L403.875 162.16L397.727 159.19ZM403.818 148.117L408.762 150.504L414.87 137.857L411.152 136.061L416.597 124.788L420.315 126.584L426.38 114.028L421.436 111.64L403.818 148.117Z" fill="#BAB8B8"/>
<path d="M508.337 107.919L537.243 43.4656L541.814 45.5156L530.109 71.6158L532.395 72.6409L536.281 63.974L540.93 66.0588L537.043 74.7257L539.329 75.7507L551.034 49.6505L555.644 51.7179L526.738 116.172L522.128 114.104L533.834 88.0039L524.614 83.869L512.908 109.969L508.337 107.919Z" fill="#ECD2AD"/>
<path d="M488.67 99.099L492.512 90.5317L489.064 88.9855L494.649 76.5331L499.22 78.5832L495.333 87.25L504.553 91.3849L510.719 77.6375L500.375 72.9988L504.218 64.4315L500.77 62.8853L510.197 41.8657L513.644 43.4119L517.576 34.6454L529.043 39.788L525.111 48.5544L528.598 50.118L523.058 62.4708L518.448 60.4034L522.335 51.7365L513.115 47.6016L506.994 61.2494L517.337 65.8882L513.495 74.4554L516.982 76.019L507.465 97.2379L503.979 95.6743L500.137 104.242L488.67 99.099Z" fill="#ECD2AD"/>
<path d="M465.556 88.7324L469.398 80.1652L465.95 78.619L491.014 22.7326L495.585 24.7827L472.219 76.8835L481.439 81.0184L504.805 28.9176L509.415 30.985L484.351 86.8714L480.865 85.3077L477.022 93.875L465.556 88.7324Z" fill="#ECD2AD"/>
<path d="M438.993 76.8199L463.967 21.1328L467.415 22.679L471.347 13.9125L482.813 19.0551L478.882 27.8216L482.368 29.3852L469.099 58.972L465.613 57.4084L461.681 66.1749L460.015 65.4279L457.782 70.4088L461.191 71.9377L455.651 84.2904L451.118 82.2577L454.96 73.6905L451.435 72.1095L455.367 63.343L451.338 61.5362L443.564 78.8699L438.993 76.8199ZM456.922 49.0838L466.142 53.2187L476.105 31.0036L466.885 26.8688L456.922 49.0838Z" fill="#ECD2AD"/>
<path d="M419.326 67.9997L423.168 59.4325L419.72 57.8863L440.852 10.7664L444.3 12.3127L448.232 3.54619L459.698 8.68874L455.767 17.4552L459.253 19.0188L449.827 40.0385L446.34 38.4748L444.151 43.3562L447.637 44.9198L438.121 66.1387L434.635 64.5751L430.793 73.1423L419.326 67.9997ZM425.989 56.1508L435.209 60.2857L441.374 46.5383L434.44 43.4284L439.935 31.1753L446.87 34.2851L452.99 20.6373L443.771 16.5024L425.989 56.1508Z" fill="#ECD2AD"/>
<path d="M551.119 78.8926L541.173 66.1123L544.401 63.6002L548.429 68.7755L550.043 67.5194L548.706 65.8009L551.989 63.2461L553.326 64.9647L554.94 63.7086L550.913 58.5333L554.168 55.9998L564.114 68.7801L560.858 71.3135L556.831 66.1382L550.32 71.2051L554.347 76.3804L551.119 78.8926Z" fill="#C7A07C"/>
<path d="M537.23 89.7009L535.908 88.0022L533.473 89.8969L531.552 87.4278L534.78 84.9156L536.117 86.6341L542.628 81.5672L540.507 78.8413L533.202 84.5256L531.88 82.8268L529.446 84.7216L526.202 80.5537L528.637 78.6589L527.284 76.9207L535.382 70.619L536.735 72.3572L539.197 70.4412L541.103 72.8906L537.848 75.424L536.51 73.7055L529.999 78.7724L532.105 81.4786L539.409 75.7943L540.731 77.493L543.194 75.577L546.468 79.7844L544.006 81.7005L545.328 83.3992L537.23 89.7009Z" fill="#C7A07C"/>
<path d="M520.906 102.404L519.584 100.705L517.149 102.6L508.526 91.5182L511.754 89.006L519.793 99.3369L526.305 94.27L518.265 83.9391L521.521 81.4056L530.144 92.4872L527.682 94.4032L529.004 96.102L520.906 102.404Z" fill="#C7A07C"/>
<path d="M502.148 117.001L493.555 105.959L495.99 104.065L494.637 102.326L502.735 96.0247L504.088 97.763L506.55 95.8469L511.116 101.714L508.653 103.63L510.006 105.368L508.83 106.283L509.598 107.271L512.006 105.398L513.912 107.847L510.711 110.338L509.389 108.639L506.899 110.576L505.547 108.838L502.702 111.052L505.376 114.489L502.148 117.001ZM500.78 108.583L507.291 103.516L503.863 99.1113L497.352 104.178L500.78 108.583Z" fill="#C7A07C"/>
<path d="M488.258 127.81L486.936 126.111L484.501 128.006L477.23 118.663L479.665 116.768L478.313 115.03L486.41 108.728L487.763 110.466L490.225 108.55L493.469 112.718L491.007 114.634L491.76 115.602L494.222 113.686L497.496 117.894L495.034 119.81L496.356 121.508L488.258 127.81ZM487.145 124.743L493.656 119.676L491.535 116.95L486.638 120.761L484.747 118.332L489.644 114.521L487.539 111.815L481.027 116.881L487.145 124.743Z" fill="#C7A07C"/>
<path d="M539.502 65.9626L552.762 56.6663L554.622 59.3195L549.253 63.084L550.183 64.4107L551.966 63.1606L553.858 65.8589L552.075 67.1089L553.005 68.4355L558.374 64.671L560.25 67.3468L546.99 76.6431L545.114 73.9674L550.484 70.2029L546.732 64.8514L541.362 68.6159L539.502 65.9626Z" fill="#C7A07C"/>
<path d="M531.499 54.5472L533.262 53.3115L531.859 51.3103L534.421 49.5143L536.281 52.1675L534.498 53.4176L538.25 58.7691L541.078 56.7862L536.869 50.7827L538.631 49.547L537.229 47.5458L541.553 44.5141L542.956 46.5153L544.759 45.2508L549.426 51.9065L547.622 53.1709L549.041 55.1946L546.499 56.9763L544.624 54.3005L546.407 53.0505L542.655 47.699L539.847 49.6674L544.056 55.671L542.293 56.9067L543.712 58.9304L539.347 61.9908L537.928 59.9671L536.166 61.2028L531.499 54.5472Z" fill="#C7A07C"/>
<path d="M522.093 41.1307L523.856 39.8951L522.453 37.8939L533.95 29.8332L535.81 32.4865L525.092 40.0011L528.844 45.3526L539.562 37.838L541.438 40.5137L529.941 48.5744L528.522 46.5507L526.76 47.7864L522.093 41.1307Z" fill="#C7A07C"/>
<path d="M511.284 25.7134L522.741 17.6815L524.144 19.6827L525.947 18.4182L530.613 25.0739L528.81 26.3383L530.229 28.362L524.142 32.6294L522.723 30.6057L520.919 31.8701L520.242 30.9033L519.217 31.6217L520.604 33.6004L518.063 35.3821L516.218 32.7513L517.981 31.5156L516.546 29.4694L518.35 28.205L516.711 25.8665L513.144 28.3666L511.284 25.7134ZM519.272 24.0705L523.024 29.422L527.594 26.2179L523.843 20.8664L519.272 24.0705Z" fill="#C7A07C"/>
<path d="M503.281 14.2971L505.044 13.0614L503.641 11.0602L513.334 4.26401L514.737 6.2652L516.541 5.00078L521.207 11.6564L519.404 12.9208L520.822 14.9445L516.498 17.9762L515.079 15.9526L514.075 16.6566L515.494 18.6803L511.128 21.7408L509.71 19.7171L507.947 20.9528L503.281 14.2971ZM506.28 13.1675L510.031 18.519L512.86 16.5362L510.038 12.5113L512.559 10.744L515.38 14.7689L518.188 12.8004L514.436 7.4489L506.28 13.1675Z" fill="#C7A07C"/>
<path d="M493.729 16.7332L492.507 0.585261L494.428 0.43987L494.923 6.97889L495.883 6.9062L495.719 4.73484L497.672 4.58699L497.836 6.75834L498.797 6.68565L498.302 0.146623L500.239 0L501.461 16.1479L499.524 16.2945L499.029 9.75549L495.155 10.0487L495.65 16.5878L493.729 16.7332Z" fill="#C7A07C"/>
<path d="M485.465 17.3585L485.303 15.2121L483.854 15.3218L483.618 12.202L485.539 12.0566L485.703 14.228L489.577 13.9347L489.317 10.4905L484.97 10.8195L484.808 8.67309L483.359 8.78275L482.961 3.51659L484.409 3.40694L484.243 1.21062L489.061 0.845913L489.228 3.04223L490.693 2.93133L490.927 6.02614L488.99 6.17276L488.825 4.00141L484.951 4.29465L485.21 7.71391L489.556 7.38493L489.719 9.53133L491.184 9.42044L491.586 14.7365L490.121 14.8474L490.284 16.9938L485.465 17.3585Z" fill="#C7A07C"/>
<path d="M475.753 18.0937L475.59 15.9473L474.141 16.0569L473.082 2.05546L475.002 1.91007L475.991 14.9632L479.865 14.6699L478.877 1.61682L480.814 1.4702L481.874 15.4717L480.409 15.5826L480.571 17.729L475.753 18.0937Z" fill="#C7A07C"/>
<path d="M464.591 18.9387L463.535 4.98712L464.984 4.87747L464.818 2.68115L469.636 2.31644L469.802 4.51276L471.267 4.40186L471.828 11.8144L470.363 11.9253L470.53 14.1216L469.83 14.1746L469.924 15.4225L471.357 15.3141L471.591 18.4089L469.686 18.553L469.524 16.4067L468.043 16.5188L467.876 14.3225L466.183 14.4506L466.512 18.7933L464.591 18.9387ZM465.947 11.3308L469.821 11.0376L469.4 5.47194L465.526 5.76518L465.947 11.3308Z" fill="#C7A07C"/>
<path d="M456.327 19.5639L456.164 17.4175L454.716 17.5272L453.822 5.72199L455.271 5.61234L455.105 3.41602L459.923 3.05131L460.089 5.24763L461.554 5.13673L461.953 10.4029L460.488 10.5138L460.58 11.7367L462.045 11.6258L462.448 16.9419L460.983 17.0528L461.145 19.1992L456.327 19.5639ZM456.565 16.4334L460.439 16.1401L460.178 12.6959L457.264 12.9165L457.032 9.84662L459.946 9.62607L459.687 6.20681L455.813 6.50005L456.565 16.4334Z" fill="#C7A07C"/>
<path d="M482.855 121.443L489.293 106.583L492.267 107.871L489.66 113.889L491.146 114.533L492.012 112.535L495.036 113.845L494.17 115.843L495.657 116.487L498.264 110.47L501.262 111.769L494.824 126.628L491.826 125.329L494.433 119.312L488.436 116.714L485.829 122.731L482.855 121.443Z" fill="#C7A07C"/>
<path d="M470.063 115.9L470.919 113.925L468.676 112.953L469.92 110.082L472.894 111.371L472.028 113.369L478.025 115.967L479.398 112.798L472.67 109.883L473.526 107.908L471.283 106.936L473.383 102.09L475.626 103.062L476.501 101.041L483.96 104.272L483.084 106.293L485.352 107.276L484.118 110.124L481.119 108.824L481.985 106.826L475.988 104.228L474.625 107.374L481.353 110.289L480.497 112.264L482.765 113.247L480.645 118.139L478.377 117.156L477.522 119.131L470.063 115.9Z" fill="#C7A07C"/>
<path d="M455.029 109.386L455.884 107.411L453.642 106.439L459.224 93.5549L462.197 94.8432L456.993 106.855L462.99 109.453L468.194 97.4415L471.193 98.7406L465.611 111.625L463.343 110.642L462.487 112.617L455.029 109.386Z" fill="#C7A07C"/>
<path d="M437.751 101.9L443.314 89.0622L445.556 90.0338L446.432 88.0128L453.891 91.2443L453.015 93.2653L455.283 94.2479L452.327 101.069L450.06 100.086L449.184 102.107L448.1 101.638L447.603 102.786L449.82 103.747L448.586 106.595L445.638 105.318L446.494 103.342L444.201 102.349L445.077 100.328L442.456 99.1925L440.725 103.189L437.751 101.9ZM443.7 96.3217L449.697 98.92L451.916 93.7985L445.919 91.2002L443.7 96.3217Z" fill="#C7A07C"/>
<path d="M424.959 96.3573L425.814 94.3822L423.572 93.4106L428.278 82.5474L430.521 83.5191L431.397 81.498L438.855 84.7295L437.979 86.7505L440.247 87.7331L438.148 92.579L435.88 91.5965L435.392 92.7218L437.66 93.7044L435.541 98.5963L433.273 97.6137L432.417 99.5888L424.959 96.3573ZM426.923 93.8261L432.92 96.4244L434.293 93.255L429.783 91.3008L431.007 88.4759L435.517 90.4301L436.881 87.2837L430.884 84.6854L426.923 93.8261Z" fill="#C7A07C"/>
<path d="M127.327 308.67V260.018H126.275V268.095H123.547V255.172H125.437V247H131.966V255.172H133.878V268.095H131.129V260.018H130.076V308.67H127.327Z" fill="#F8CCC3"/>
<path d="M111.255 308.67V247H113.983V255.172H115.873V263.249H117.785V287.575H118.837V247H121.586V308.67H118.837V300.593H116.947V292.421H115.036V268.095H113.983V308.67H111.255Z" fill="#F8CCC3"/>
<path d="M102.11 308.67V295.747H104V260.018H102.11V247H108.64V260.018H106.728V295.747H108.64V308.67H102.11Z" fill="#F8CCC3"/>
<path d="M89.1689 308.67V263.249H91.0589V255.172H92.949V247H95.6982V255.172H97.5883V263.249H99.4999V308.67H96.7507V292.421H91.8966V308.67H89.1689ZM91.8966 279.403H96.7507V268.095H94.8606V260.018H93.7867V268.095H91.8966V279.403Z" fill="#F8CCC3"/>
<path d="M76.8778 308.67V255.172H78.7679V247H85.2972V255.172H87.2088V284.249H85.2972V292.421H79.6055V308.67H76.8778ZM79.6055 279.403H84.4596V260.018H79.6055V279.403Z" fill="#F8CCC3"/>
<path d="M205.327 212.67V164.018H204.275V172.095H201.547V159.172H203.437V151H209.966V159.172H211.878V172.095H209.129V164.018H208.076V212.67H205.327Z" fill="#CFEBC2"/>
<path d="M189.255 212.67V151H191.983V159.172H193.873V167.249H195.785V191.575H196.837V151H199.586V212.67H196.837V204.593H194.947V196.421H193.036V172.095H191.983V212.67H189.255Z" fill="#CFEBC2"/>
<path d="M180.11 212.67V199.747H182V164.018H180.11V151H186.64V164.018H184.728V199.747H186.64V212.67H180.11Z" fill="#CFEBC2"/>
<path d="M167.169 212.67V167.249H169.059V159.172H170.949V151H173.698V159.172H175.588V167.249H177.5V212.67H174.751V196.421H169.897V212.67H167.169ZM169.897 183.403H174.751V172.095H172.861V164.018H171.787V172.095H169.897V183.403Z" fill="#CFEBC2"/>
<path d="M154.878 212.67V159.172H156.768V151H163.297V159.172H165.209V188.249H163.297V196.421H157.606V212.67H154.878ZM157.606 183.403H162.46V164.018H157.606V183.403Z" fill="#CFEBC2"/>
<path d="M320.327 198.67V150.018H319.275V158.095H316.547V145.172H318.437V137H324.966V145.172H326.878V158.095H324.129V150.018H323.076V198.67H320.327Z" fill="#FFEBBE"/>
<path d="M304.255 198.67V137H306.983V145.172H308.873V153.249H310.785V177.575H311.837V137H314.586V198.67H311.837V190.593H309.947V182.421H308.036V158.095H306.983V198.67H304.255Z" fill="#FFEBBE"/>
<path d="M295.11 198.67V185.747H297V150.018H295.11V137H301.64V150.018H299.728V185.747H301.64V198.67H295.11Z" fill="#FFEBBE"/>
<path d="M282.169 198.67V153.249H284.059V145.172H285.949V137H288.698V145.172H290.588V153.249H292.5V198.67H289.751V182.421H284.897V198.67H282.169ZM284.897 169.403H289.751V158.095H287.861V150.018H286.787V158.095H284.897V169.403Z" fill="#FFEBBE"/>
<path d="M269.878 198.67V145.172H271.768V137H278.297V145.172H280.209V174.249H278.297V182.421H272.606V198.67H269.878ZM272.606 169.403H277.46V150.018H272.606V169.403Z" fill="#FFEBBE"/>
<path d="M122.935 254.249L128.295 247.568L127.655 247.055L126.765 248.164L125.108 246.834L126.532 245.06L127.68 245.981L128.581 244.859L132.548 248.041L131.647 249.163L132.809 250.095L131.385 251.87L129.715 250.53L130.604 249.421L129.965 248.908L124.605 255.589L122.935 254.249Z" fill="#E97C67"/>
<path d="M111.924 248.788L115.758 238.63L117.746 239.381L117.238 240.727L118.615 241.247L118.113 242.577L119.506 243.103L117.993 247.11L118.76 247.399L121.283 240.716L123.287 241.472L119.452 251.63L117.449 250.874L117.951 249.543L116.574 249.023L117.082 247.677L115.689 247.152L117.201 243.145L116.434 242.855L113.911 249.538L111.924 248.788Z" fill="#E97C67"/>
<path d="M104.959 247.797L105.199 245.534L106.663 245.689L107.326 239.434L105.862 239.279L106.103 237L111.161 237.536L110.919 239.815L109.439 239.658L108.776 245.913L110.256 246.07L110.017 248.333L104.959 247.797Z" fill="#E97C67"/>
<path d="M95.0756 249.056L93.8626 241.152L95.3178 240.929L95.1021 239.523L96.5572 239.3L96.339 237.878L98.4556 237.553L98.6739 238.975L100.129 238.752L100.345 240.157L101.816 239.932L103.029 247.836L100.913 248.161L100.479 245.333L96.7417 245.906L97.1757 248.734L95.0756 249.056ZM96.3941 243.641L100.131 243.068L99.8292 241.1L98.3741 241.323L98.1584 239.917L97.3316 240.044L97.5473 241.45L96.0921 241.673L96.3941 243.641Z" fill="#E97C67"/>
<path d="M86.4752 252.948L82.324 244.493L83.6455 243.845L83.0114 242.553L87.5767 240.312L88.2108 241.603L89.5473 240.947L91.8035 245.542L90.467 246.198L91.1011 247.49L87.1216 249.444L88.3824 252.012L86.4752 252.948ZM86.1114 247.386L89.5053 245.72L88.0011 242.656L84.6073 244.323L86.1114 247.386Z" fill="#E97C67"/>
<path d="M81.708 257.111L75.7725 250.936L75.1814 251.504L76.1668 252.529L74.635 254.001L73.0584 252.361L74.1198 251.341L73.1228 250.303L76.7896 246.779L77.7866 247.817L78.8601 246.785L80.4367 248.425L78.8928 249.909L77.9074 248.884L77.3164 249.452L83.2519 255.627L81.708 257.111Z" fill="#E97C67"/>
<path d="M75.0151 267.382L65.3473 262.441L66.3143 260.549L67.5954 261.204L68.2654 259.893L69.5316 260.54L70.2093 259.214L74.0228 261.164L74.3959 260.434L68.0351 257.182L69.0097 255.276L78.6775 260.217L77.7029 262.124L76.4367 261.477L75.7667 262.788L74.4856 262.133L73.8079 263.459L69.9944 261.509L69.6213 262.239L75.9821 265.491L75.0151 267.382Z" fill="#E97C67"/>
<path d="M73.5955 274.24L71.3496 273.876L71.5851 272.422L65.3758 271.416L65.1403 272.869L62.8778 272.503L63.6914 267.482L65.9539 267.849L65.7157 269.319L71.925 270.325L72.1632 268.855L74.4092 269.219L73.5955 274.24Z" fill="#E97C67"/>
<path d="M74.9026 284.065L67.0133 285.372L66.7727 283.92L65.3698 284.152L65.1293 282.7L63.7099 282.935L63.3599 280.822L64.7794 280.587L64.5388 279.135L65.9417 278.902L65.6984 277.433L73.5877 276.127L73.9376 278.239L71.1153 278.707L71.7331 282.437L74.5554 281.969L74.9026 284.065ZM69.4719 282.811L68.8541 279.081L66.8901 279.406L67.1306 280.859L65.7277 281.091L65.8644 281.916L67.2673 281.684L67.5079 283.137L69.4719 282.811Z" fill="#E97C67"/>
<path d="M79.3417 292.351L71.2121 297.107L70.4686 295.836L69.2268 296.563L66.6586 292.173L67.9004 291.447L67.1485 290.162L71.5671 287.576L72.319 288.862L73.5608 288.135L75.7996 291.962L78.2688 290.517L79.3417 292.351ZM73.8213 293.119L71.912 289.856L68.9663 291.579L70.8756 294.842L73.8213 293.119Z" fill="#E97C67"/>
<path d="M83.9082 296.723L78.3045 303.201L78.9245 303.737L79.8548 302.662L81.4618 304.052L79.9733 305.773L78.8598 304.809L77.9186 305.898L74.0721 302.57L75.0133 301.482L73.8872 300.508L75.3757 298.787L76.9953 300.188L76.065 301.264L76.685 301.8L82.2887 295.322L83.9082 296.723Z" fill="#E97C67"/>
<path d="M94.6815 302.658L90.3848 312.629L88.4336 311.788L89.003 310.467L87.6509 309.884L88.2137 308.578L86.8463 307.989L88.5411 304.056L87.7883 303.731L84.9613 310.292L82.9948 309.444L87.2915 299.473L89.2581 300.32L88.6953 301.626L90.0473 302.209L89.478 303.53L90.8454 304.12L89.1505 308.053L89.9033 308.377L92.7303 301.817L94.6815 302.658Z" fill="#E97C67"/>
<path d="M101.595 303.952L101.257 306.202L99.8009 305.984L98.8671 312.204L100.323 312.423L99.9828 314.689L94.9534 313.935L95.2936 311.668L96.766 311.889L97.6998 305.668L96.2273 305.447L96.565 303.197L101.595 303.952Z" fill="#E97C67"/>
<path d="M111.525 303.128L112.389 311.078L110.925 311.237L111.079 312.651L109.615 312.81L109.77 314.24L107.641 314.472L107.486 313.041L106.022 313.2L105.869 311.787L104.389 311.947L103.525 303.997L105.654 303.766L105.963 306.61L109.722 306.202L109.413 303.358L111.525 303.128ZM109.969 308.48L106.21 308.889L106.425 310.868L107.889 310.709L108.043 312.123L108.874 312.032L108.721 310.619L110.184 310.46L109.969 308.48Z" fill="#E97C67"/>
<path d="M120.296 299.635L124.053 308.272L122.703 308.859L123.277 310.178L118.614 312.207L118.04 310.888L116.674 311.482L114.632 306.787L115.998 306.193L115.424 304.874L119.489 303.105L118.348 300.482L120.296 299.635ZM120.403 305.207L116.936 306.716L118.298 309.845L121.765 308.337L120.403 305.207Z" fill="#E97C67"/>
<path d="M125.261 295.706L130.888 302.163L131.506 301.625L130.571 300.553L132.173 299.157L133.668 300.872L132.558 301.84L133.503 302.924L129.669 306.265L128.724 305.181L127.601 306.159L126.106 304.443L127.721 303.037L128.655 304.109L129.273 303.57L123.646 297.112L125.261 295.706Z" fill="#E97C67"/>
<path d="M132.478 285.789L141.871 291.236L140.805 293.074L139.56 292.352L138.822 293.626L137.592 292.912L136.845 294.2L133.14 292.052L132.729 292.761L138.908 296.345L137.834 298.197L128.442 292.75L129.516 290.898L130.746 291.611L131.484 290.338L132.729 291.059L133.476 289.771L137.181 291.92L137.592 291.211L131.412 287.627L132.478 285.789Z" fill="#E97C67"/>
<path d="M134.272 279.019L136.495 279.506L136.179 280.944L142.324 282.291L142.639 280.853L144.878 281.344L143.789 286.312L141.55 285.821L141.869 284.367L135.724 283.02L135.406 284.474L133.183 283.987L134.272 279.019Z" fill="#E97C67"/>
<path d="M133.506 269.137L141.455 268.264L141.616 269.728L143.029 269.573L143.19 271.036L144.62 270.879L144.853 273.008L143.423 273.165L143.584 274.628L142.17 274.783L142.333 276.263L134.384 277.135L134.15 275.007L136.994 274.695L136.581 270.936L133.738 271.249L133.506 269.137ZM138.86 270.687L139.272 274.445L141.251 274.228L141.09 272.764L142.504 272.609L142.413 271.778L140.999 271.933L140.839 270.469L138.86 270.687Z" fill="#E97C67"/>
<path d="M129.516 260.628L137.887 256.31L138.562 257.619L139.841 256.959L142.172 261.48L140.893 262.139L141.575 263.462L137.025 265.809L136.343 264.485L135.064 265.145L133.032 261.205L130.49 262.516L129.516 260.628ZM135.069 260.154L136.802 263.515L139.835 261.95L138.103 258.59L135.069 260.154Z" fill="#E97C67"/>
<path d="M202.935 158.249L208.295 151.568L207.655 151.055L206.765 152.164L205.108 150.834L206.532 149.06L207.68 149.981L208.581 148.859L212.548 152.041L211.647 153.163L212.809 154.095L211.385 155.87L209.715 154.53L210.604 153.421L209.965 152.908L204.605 159.589L202.935 158.249Z" fill="#97D37B"/>
<path d="M191.924 152.788L195.758 142.63L197.746 143.381L197.238 144.727L198.615 145.247L198.113 146.577L199.506 147.103L197.993 151.11L198.76 151.399L201.283 144.716L203.287 145.472L199.452 155.63L197.449 154.874L197.951 153.543L196.574 153.023L197.082 151.677L195.689 151.152L197.201 147.145L196.434 146.855L193.911 153.538L191.924 152.788Z" fill="#97D37B"/>
<path d="M184.959 151.797L185.199 149.534L186.663 149.689L187.326 143.434L185.862 143.279L186.103 141L191.161 141.536L190.919 143.815L189.439 143.658L188.776 149.913L190.256 150.07L190.017 152.333L184.959 151.797Z" fill="#97D37B"/>
<path d="M175.076 153.056L173.863 145.152L175.318 144.929L175.102 143.523L176.557 143.3L176.339 141.878L178.456 141.553L178.674 142.975L180.129 142.752L180.345 144.157L181.816 143.932L183.029 151.836L180.913 152.161L180.479 149.333L176.742 149.906L177.176 152.734L175.076 153.056ZM176.394 147.641L180.131 147.068L179.829 145.1L178.374 145.323L178.158 143.917L177.332 144.044L177.547 145.45L176.092 145.673L176.394 147.641Z" fill="#97D37B"/>
<path d="M166.475 156.948L162.324 148.493L163.646 147.845L163.011 146.553L167.577 144.312L168.211 145.603L169.547 144.947L171.804 149.542L170.467 150.198L171.101 151.49L167.122 153.444L168.382 156.012L166.475 156.948ZM166.111 151.386L169.505 149.72L168.001 146.656L164.607 148.323L166.111 151.386Z" fill="#97D37B"/>
<path d="M161.708 161.111L155.772 154.936L155.181 155.504L156.167 156.529L154.635 158.001L153.058 156.361L154.12 155.341L153.123 154.303L156.79 150.779L157.787 151.817L158.86 150.785L160.437 152.425L158.893 153.909L157.907 152.884L157.316 153.452L163.252 159.627L161.708 161.111Z" fill="#97D37B"/>
<path d="M155.015 171.382L145.347 166.441L146.314 164.549L147.595 165.204L148.265 163.893L149.532 164.54L150.209 163.214L154.023 165.164L154.396 164.434L148.035 161.182L149.01 159.276L158.678 164.217L157.703 166.124L156.437 165.477L155.767 166.788L154.486 166.133L153.808 167.459L149.994 165.509L149.621 166.239L155.982 169.491L155.015 171.382Z" fill="#97D37B"/>
<path d="M153.596 178.24L151.35 177.876L151.585 176.422L145.376 175.416L145.14 176.869L142.878 176.503L143.691 171.482L145.954 171.849L145.716 173.319L151.925 174.325L152.163 172.855L154.409 173.219L153.596 178.24Z" fill="#97D37B"/>
<path d="M154.903 188.065L147.013 189.372L146.773 187.92L145.37 188.152L145.129 186.7L143.71 186.935L143.36 184.822L144.779 184.587L144.539 183.135L145.942 182.902L145.698 181.433L153.588 180.127L153.938 182.239L151.115 182.707L151.733 186.437L154.555 185.969L154.903 188.065ZM149.472 186.811L148.854 183.081L146.89 183.406L147.131 184.859L145.728 185.091L145.864 185.916L147.267 185.684L147.508 187.137L149.472 186.811Z" fill="#97D37B"/>
<path d="M159.342 196.351L151.212 201.107L150.469 199.836L149.227 200.563L146.659 196.173L147.9 195.447L147.149 194.162L151.567 191.576L152.319 192.862L153.561 192.135L155.8 195.962L158.269 194.517L159.342 196.351ZM153.821 197.119L151.912 193.856L148.966 195.579L150.876 198.842L153.821 197.119Z" fill="#97D37B"/>
<path d="M163.908 200.723L158.305 207.201L158.925 207.737L159.855 206.662L161.462 208.052L159.973 209.773L158.86 208.809L157.919 209.898L154.072 206.57L155.013 205.482L153.887 204.508L155.376 202.787L156.995 204.188L156.065 205.264L156.685 205.8L162.289 199.322L163.908 200.723Z" fill="#97D37B"/>
<path d="M174.682 206.658L170.385 216.629L168.434 215.788L169.003 214.467L167.651 213.884L168.214 212.578L166.846 211.989L168.541 208.056L167.788 207.731L164.961 214.292L162.995 213.444L167.291 203.473L169.258 204.32L168.695 205.626L170.047 206.209L169.478 207.53L170.845 208.12L169.151 212.053L169.903 212.377L172.73 205.817L174.682 206.658Z" fill="#97D37B"/>
<path d="M181.595 207.952L181.257 210.202L179.801 209.984L178.867 216.204L180.323 216.423L179.983 218.689L174.953 217.935L175.294 215.668L176.766 215.889L177.7 209.668L176.227 209.447L176.565 207.197L181.595 207.952Z" fill="#97D37B"/>
<path d="M191.525 207.128L192.389 215.078L190.925 215.237L191.079 216.651L189.615 216.81L189.77 218.24L187.641 218.472L187.486 217.041L186.023 217.2L185.869 215.787L184.389 215.947L183.525 207.997L185.654 207.766L185.963 210.61L189.722 210.202L189.413 207.358L191.525 207.128ZM189.969 212.48L186.21 212.889L186.425 214.868L187.889 214.709L188.043 216.123L188.874 216.032L188.721 214.619L190.184 214.46L189.969 212.48Z" fill="#97D37B"/>
<path d="M200.296 203.635L204.053 212.272L202.703 212.859L203.277 214.178L198.614 216.207L198.04 214.888L196.674 215.482L194.632 210.787L195.998 210.193L195.424 208.874L199.489 207.105L198.348 204.482L200.296 203.635ZM200.403 209.207L196.936 210.716L198.298 213.845L201.765 212.337L200.403 209.207Z" fill="#97D37B"/>
<path d="M205.261 199.706L210.888 206.163L211.506 205.625L210.571 204.553L212.173 203.157L213.668 204.872L212.558 205.84L213.503 206.924L209.669 210.265L208.724 209.181L207.601 210.159L206.106 208.443L207.721 207.037L208.655 208.109L209.273 207.57L203.646 201.112L205.261 199.706Z" fill="#97D37B"/>
<path d="M212.478 189.789L221.871 195.236L220.805 197.074L219.56 196.352L218.822 197.626L217.592 196.912L216.845 198.2L213.14 196.052L212.729 196.761L218.908 200.345L217.834 202.197L208.442 196.75L209.516 194.898L210.746 195.611L211.484 194.338L212.729 195.059L213.476 193.771L217.181 195.92L217.592 195.211L211.412 191.627L212.478 189.789Z" fill="#97D37B"/>
<path d="M214.272 183.019L216.495 183.506L216.179 184.944L222.324 186.291L222.639 184.853L224.878 185.344L223.789 190.312L221.55 189.821L221.869 188.367L215.724 187.02L215.406 188.474L213.183 187.987L214.272 183.019Z" fill="#97D37B"/>
<path d="M213.506 173.137L221.455 172.264L221.616 173.728L223.029 173.573L223.19 175.036L224.62 174.879L224.853 177.008L223.423 177.165L223.584 178.628L222.17 178.783L222.333 180.263L214.384 181.135L214.15 179.007L216.994 178.695L216.581 174.936L213.738 175.249L213.506 173.137ZM218.86 174.687L219.272 178.445L221.251 178.228L221.09 176.764L222.504 176.609L222.413 175.778L220.999 175.933L220.839 174.469L218.86 174.687Z" fill="#97D37B"/>
<path d="M209.516 164.628L217.887 160.31L218.562 161.619L219.841 160.959L222.172 165.48L220.893 166.139L221.575 167.462L217.025 169.809L216.343 168.485L215.064 169.145L213.032 165.205L210.49 166.516L209.516 164.628ZM215.069 164.154L216.802 167.515L219.835 165.95L218.103 162.59L215.069 164.154Z" fill="#97D37B"/>
<path d="M315.935 142.249L321.295 135.568L320.655 135.055L319.765 136.164L318.108 134.834L319.532 133.06L320.68 133.981L321.581 132.859L325.548 136.041L324.647 137.163L325.809 138.095L324.385 139.87L322.715 138.53L323.604 137.421L322.965 136.908L317.605 143.589L315.935 142.249Z" fill="#F7C356"/>
<path d="M304.924 136.788L308.758 126.63L310.746 127.381L310.238 128.727L311.615 129.247L311.113 130.577L312.506 131.103L310.993 135.11L311.76 135.399L314.283 128.716L316.287 129.472L312.452 139.63L310.449 138.874L310.951 137.543L309.574 137.023L310.082 135.677L308.689 135.152L310.201 131.145L309.434 130.855L306.911 137.538L304.924 136.788Z" fill="#F7C356"/>
<path d="M297.959 135.797L298.199 133.534L299.663 133.689L300.326 127.434L298.862 127.279L299.103 125L304.161 125.536L303.919 127.815L302.439 127.658L301.776 133.913L303.257 134.07L303.017 136.333L297.959 135.797Z" fill="#F7C356"/>
<path d="M288.076 137.056L286.863 129.152L288.318 128.929L288.102 127.523L289.557 127.3L289.339 125.878L291.456 125.553L291.674 126.975L293.129 126.752L293.345 128.157L294.816 127.932L296.029 135.836L293.913 136.161L293.479 133.333L289.742 133.906L290.176 136.734L288.076 137.056ZM289.394 131.641L293.131 131.068L292.829 129.1L291.374 129.323L291.158 127.917L290.332 128.044L290.547 129.45L289.092 129.673L289.394 131.641Z" fill="#F7C356"/>
<path d="M279.475 140.948L275.324 132.493L276.646 131.845L276.011 130.553L280.577 128.312L281.211 129.603L282.547 128.947L284.804 133.542L283.467 134.198L284.101 135.49L280.122 137.444L281.382 140.012L279.475 140.948ZM279.111 135.386L282.505 133.72L281.001 130.656L277.607 132.323L279.111 135.386Z" fill="#F7C356"/>
<path d="M274.708 145.111L268.772 138.936L268.181 139.504L269.167 140.529L267.635 142.001L266.058 140.361L267.12 139.341L266.123 138.303L269.79 134.779L270.787 135.817L271.86 134.785L273.437 136.425L271.893 137.909L270.907 136.884L270.316 137.452L276.252 143.627L274.708 145.111Z" fill="#F7C356"/>
<path d="M268.015 155.382L258.347 150.441L259.314 148.549L260.595 149.204L261.265 147.893L262.532 148.54L263.209 147.214L267.023 149.164L267.396 148.434L261.035 145.182L262.01 143.276L271.678 148.217L270.703 150.124L269.437 149.477L268.767 150.788L267.486 150.133L266.808 151.459L262.994 149.509L262.621 150.239L268.982 153.491L268.015 155.382Z" fill="#F7C356"/>
<path d="M266.596 162.24L264.35 161.876L264.585 160.422L258.376 159.416L258.14 160.869L255.878 160.503L256.691 155.482L258.954 155.849L258.716 157.319L264.925 158.325L265.163 156.855L267.409 157.219L266.596 162.24Z" fill="#F7C356"/>
<path d="M267.903 172.065L260.013 173.372L259.773 171.92L258.37 172.152L258.129 170.7L256.71 170.935L256.36 168.822L257.779 168.587L257.539 167.135L258.942 166.902L258.698 165.433L266.588 164.127L266.938 166.239L264.115 166.707L264.733 170.437L267.555 169.969L267.903 172.065ZM262.472 170.811L261.854 167.081L259.89 167.406L260.131 168.859L258.728 169.091L258.864 169.916L260.267 169.684L260.508 171.137L262.472 170.811Z" fill="#F7C356"/>
<path d="M272.342 180.351L264.212 185.107L263.469 183.836L262.227 184.563L259.659 180.173L260.9 179.447L260.148 178.162L264.567 175.576L265.319 176.862L266.561 176.135L268.8 179.962L271.269 178.517L272.342 180.351ZM266.821 181.119L264.912 177.856L261.966 179.579L263.876 182.842L266.821 181.119Z" fill="#F7C356"/>
<path d="M276.908 184.723L271.305 191.201L271.925 191.737L272.855 190.662L274.462 192.052L272.973 193.773L271.86 192.809L270.919 193.898L267.072 190.57L268.013 189.482L266.887 188.508L268.376 186.787L269.995 188.188L269.065 189.264L269.685 189.8L275.289 183.322L276.908 184.723Z" fill="#F7C356"/>
<path d="M287.682 190.658L283.385 200.629L281.434 199.788L282.003 198.467L280.651 197.884L281.214 196.578L279.846 195.989L281.541 192.056L280.788 191.731L277.961 198.292L275.995 197.444L280.292 187.473L282.258 188.32L281.695 189.626L283.047 190.209L282.478 191.53L283.845 192.12L282.151 196.053L282.903 196.377L285.73 189.817L287.682 190.658Z" fill="#F7C356"/>
<path d="M294.595 191.952L294.257 194.202L292.801 193.984L291.867 200.204L293.323 200.423L292.983 202.689L287.953 201.935L288.294 199.668L289.766 199.889L290.7 193.668L289.227 193.447L289.565 191.197L294.595 191.952Z" fill="#F7C356"/>
<path d="M304.525 191.128L305.389 199.078L303.925 199.237L304.079 200.651L302.615 200.81L302.77 202.24L300.642 202.472L300.486 201.041L299.022 201.2L298.869 199.787L297.389 199.947L296.525 191.997L298.654 191.766L298.963 194.61L302.722 194.202L302.413 191.358L304.525 191.128ZM302.969 196.48L299.21 196.889L299.425 198.868L300.889 198.709L301.043 200.123L301.874 200.032L301.721 198.619L303.184 198.46L302.969 196.48Z" fill="#F7C356"/>
<path d="M313.296 187.635L317.053 196.272L315.703 196.859L316.277 198.178L311.614 200.207L311.04 198.888L309.674 199.482L307.632 194.787L308.998 194.193L308.424 192.874L312.489 191.105L311.348 188.482L313.296 187.635ZM313.403 193.207L309.936 194.716L311.298 197.845L314.765 196.337L313.403 193.207Z" fill="#F7C356"/>
<path d="M318.261 183.706L323.888 190.163L324.506 189.625L323.572 188.553L325.173 187.157L326.668 188.872L325.558 189.84L326.503 190.924L322.669 194.265L321.724 193.181L320.601 194.159L319.106 192.443L320.721 191.037L321.655 192.109L322.273 191.57L316.646 185.112L318.261 183.706Z" fill="#F7C356"/>
<path d="M325.478 173.789L334.871 179.236L333.805 181.074L332.56 180.352L331.822 181.626L330.592 180.912L329.845 182.2L326.14 180.052L325.729 180.761L331.908 184.345L330.834 186.197L321.442 180.75L322.516 178.898L323.746 179.611L324.484 178.338L325.729 179.059L326.476 177.771L330.181 179.92L330.592 179.211L324.413 175.627L325.478 173.789Z" fill="#F7C356"/>
<path d="M327.272 167.019L329.495 167.506L329.179 168.944L335.324 170.291L335.639 168.853L337.878 169.344L336.789 174.312L334.55 173.821L334.869 172.367L328.724 171.02L328.406 172.474L326.183 171.987L327.272 167.019Z" fill="#F7C356"/>
<path d="M326.506 157.137L334.455 156.264L334.616 157.728L336.029 157.573L336.19 159.036L337.62 158.879L337.853 161.008L336.423 161.165L336.584 162.628L335.17 162.783L335.333 164.263L327.384 165.135L327.15 163.007L329.994 162.695L329.581 158.936L326.738 159.249L326.506 157.137ZM331.86 158.687L332.272 162.445L334.251 162.228L334.09 160.764L335.504 160.609L335.413 159.778L333.999 159.933L333.839 158.469L331.86 158.687Z" fill="#F7C356"/>
<path d="M322.516 148.628L330.887 144.31L331.562 145.619L332.841 144.959L335.172 149.48L333.893 150.139L334.575 151.462L330.025 153.809L329.343 152.485L328.064 153.145L326.032 149.205L323.49 150.516L322.516 148.628ZM328.069 148.154L329.802 151.515L332.836 149.95L331.103 146.59L328.069 148.154Z" fill="#F7C356"/>
<path d="M266.935 271.249L272.295 264.568L271.655 264.055L270.765 265.164L269.108 263.834L270.532 262.06L271.68 262.981L272.581 261.859L276.548 265.041L275.647 266.164L276.809 267.095L275.385 268.87L273.715 267.53L274.604 266.421L273.965 265.908L268.605 272.589L266.935 271.249Z" fill="#8AB8CA"/>
<path d="M255.924 265.788L259.758 255.63L261.746 256.381L261.238 257.727L262.615 258.247L262.113 259.577L263.506 260.103L261.993 264.11L262.76 264.399L265.283 257.716L267.287 258.472L263.452 268.63L261.449 267.874L261.951 266.543L260.574 266.023L261.082 264.677L259.689 264.152L261.201 260.145L260.434 259.855L257.911 266.538L255.924 265.788Z" fill="#8AB8CA"/>
<path d="M248.959 264.797L249.199 262.534L250.663 262.689L251.326 256.434L249.862 256.279L250.103 254L255.161 254.536L254.919 256.815L253.439 256.658L252.776 262.913L254.256 263.07L254.017 265.333L248.959 264.797Z" fill="#8AB8CA"/>
<path d="M239.076 266.056L237.863 258.152L239.318 257.929L239.102 256.523L240.557 256.3L240.339 254.878L242.456 254.553L242.674 255.975L244.129 255.752L244.345 257.157L245.816 256.932L247.029 264.836L244.913 265.161L244.479 262.333L240.742 262.906L241.176 265.734L239.076 266.056ZM240.394 260.641L244.131 260.068L243.829 258.1L242.374 258.323L242.158 256.917L241.332 257.044L241.547 258.45L240.092 258.673L240.394 260.641Z" fill="#8AB8CA"/>
<path d="M230.475 269.948L226.324 261.493L227.646 260.845L227.011 259.553L231.577 257.312L232.211 258.603L233.547 257.947L235.804 262.542L234.467 263.198L235.101 264.49L231.122 266.444L232.382 269.012L230.475 269.948ZM230.111 264.386L233.505 262.72L232.001 259.656L228.607 261.323L230.111 264.386Z" fill="#8AB8CA"/>
<path d="M225.708 274.111L219.772 267.936L219.181 268.504L220.167 269.529L218.635 271.001L217.058 269.361L218.12 268.341L217.123 267.303L220.79 263.779L221.787 264.817L222.86 263.785L224.437 265.425L222.893 266.909L221.907 265.884L221.316 266.452L227.252 272.627L225.708 274.111Z" fill="#8AB8CA"/>
<path d="M219.015 284.382L209.347 279.441L210.314 277.549L211.595 278.204L212.265 276.893L213.532 277.54L214.209 276.214L218.023 278.164L218.396 277.434L212.035 274.182L213.01 272.276L222.678 277.217L221.703 279.124L220.437 278.477L219.767 279.788L218.486 279.133L217.808 280.459L213.994 278.509L213.621 279.239L219.982 282.491L219.015 284.382Z" fill="#8AB8CA"/>
<path d="M217.596 291.24L215.35 290.876L215.585 289.422L209.376 288.416L209.14 289.869L206.878 289.503L207.691 284.482L209.954 284.849L209.716 286.319L215.925 287.325L216.163 285.855L218.409 286.219L217.596 291.24Z" fill="#8AB8CA"/>
<path d="M218.903 301.065L211.013 302.372L210.773 300.92L209.37 301.152L209.129 299.7L207.71 299.935L207.36 297.822L208.779 297.587L208.539 296.135L209.942 295.902L209.698 294.433L217.588 293.127L217.938 295.239L215.115 295.707L215.733 299.437L218.555 298.969L218.903 301.065ZM213.472 299.811L212.854 296.081L210.89 296.406L211.131 297.859L209.728 298.091L209.864 298.916L211.267 298.684L211.508 300.137L213.472 299.811Z" fill="#8AB8CA"/>
<path d="M223.342 309.351L215.212 314.107L214.469 312.836L213.227 313.563L210.659 309.173L211.9 308.447L211.149 307.162L215.567 304.576L216.319 305.862L217.561 305.135L219.8 308.962L222.269 307.517L223.342 309.351ZM217.821 310.119L215.912 306.856L212.966 308.579L214.876 311.842L217.821 310.119Z" fill="#8AB8CA"/>
<path d="M227.908 313.723L222.305 320.201L222.925 320.737L223.855 319.662L225.462 321.052L223.973 322.773L222.86 321.809L221.919 322.898L218.072 319.57L219.013 318.482L217.887 317.508L219.376 315.787L220.995 317.188L220.065 318.264L220.685 318.8L226.289 312.322L227.908 313.723Z" fill="#8AB8CA"/>
<path d="M238.682 319.658L234.385 329.629L232.434 328.788L233.003 327.467L231.651 326.884L232.214 325.578L230.846 324.989L232.541 321.056L231.788 320.731L228.961 327.292L226.995 326.444L231.291 316.473L233.258 317.32L232.695 318.626L234.047 319.209L233.478 320.53L234.845 321.12L233.151 325.053L233.903 325.377L236.73 318.817L238.682 319.658Z" fill="#8AB8CA"/>
<path d="M245.595 320.952L245.257 323.202L243.801 322.984L242.867 329.204L244.323 329.423L243.983 331.689L238.953 330.935L239.294 328.668L240.766 328.889L241.7 322.668L240.227 322.447L240.565 320.197L245.595 320.952Z" fill="#8AB8CA"/>
<path d="M255.525 320.128L256.389 328.078L254.925 328.237L255.079 329.651L253.615 329.81L253.77 331.24L251.641 331.472L251.486 330.041L250.023 330.2L249.869 328.787L248.389 328.947L247.525 320.997L249.654 320.766L249.963 323.61L253.722 323.202L253.413 320.358L255.525 320.128ZM253.969 325.48L250.21 325.889L250.425 327.868L251.889 327.709L252.043 329.123L252.874 329.032L252.721 327.619L254.184 327.46L253.969 325.48Z" fill="#8AB8CA"/>
<path d="M264.296 316.635L268.053 325.272L266.703 325.859L267.277 327.178L262.614 329.207L262.04 327.888L260.674 328.482L258.632 323.787L259.998 323.193L259.424 321.874L263.489 320.105L262.348 317.482L264.296 316.635ZM264.403 322.207L260.936 323.716L262.298 326.845L265.765 325.337L264.403 322.207Z" fill="#8AB8CA"/>
<path d="M269.261 312.706L274.888 319.163L275.506 318.625L274.572 317.553L276.173 316.157L277.668 317.872L276.558 318.84L277.503 319.924L273.669 323.265L272.724 322.181L271.601 323.159L270.106 321.443L271.721 320.037L272.655 321.109L273.273 320.57L267.646 314.112L269.261 312.706Z" fill="#8AB8CA"/>
<path d="M276.478 302.789L285.871 308.236L284.805 310.074L283.56 309.352L282.822 310.626L281.592 309.912L280.845 311.2L277.14 309.052L276.729 309.761L282.908 313.345L281.834 315.197L272.442 309.75L273.516 307.898L274.746 308.611L275.484 307.338L276.729 308.059L277.476 306.771L281.181 308.92L281.592 308.211L275.413 304.627L276.478 302.789Z" fill="#8AB8CA"/>
<path d="M278.272 296.019L280.495 296.506L280.179 297.944L286.324 299.291L286.639 297.853L288.878 298.344L287.789 303.312L285.55 302.821L285.869 301.367L279.724 300.02L279.406 301.474L277.183 300.987L278.272 296.019Z" fill="#8AB8CA"/>
<path d="M277.506 286.137L285.455 285.264L285.616 286.728L287.029 286.573L287.19 288.036L288.62 287.879L288.853 290.008L287.423 290.165L287.584 291.628L286.17 291.783L286.333 293.263L278.384 294.135L278.15 292.007L280.994 291.695L280.581 287.936L277.738 288.249L277.506 286.137ZM282.86 287.687L283.272 291.445L285.251 291.228L285.09 289.764L286.504 289.609L286.413 288.778L284.999 288.933L284.839 287.469L282.86 287.687Z" fill="#8AB8CA"/>
<path d="M273.516 277.628L281.887 273.31L282.562 274.619L283.841 273.959L286.172 278.48L284.893 279.139L285.575 280.462L281.025 282.809L280.343 281.485L279.064 282.145L277.032 278.205L274.49 279.516L273.516 277.628ZM279.069 277.154L280.802 280.515L283.836 278.95L282.103 275.59L279.069 277.154Z" fill="#8AB8CA"/>
</svg>
