<svg width="278" height="260" viewBox="0 0 278 260" fill="none" xmlns="http://www.w3.org/2000/svg">
<path d="M135.961 158.285V151.245H141.849V146.765H130.201V133.837H143.129V145.485H148.889V152.397H143.129V158.285H135.961ZM130.201 123.981V111.181H143.129V123.981H130.201Z" fill="black"/>
<path d="M3.94196 102.325L3.54937 101.94L3.87152 101.612L3.62169 101.367L2.98438 102.016L2.26344 101.309L2.97078 100.588L3.62035 101.225L3.9355 100.904L4.32096 101.282L4.0058 101.603L4.33415 101.926L3.94196 102.325ZM1.71381 100.77L1 100.069L1.70735 99.3483L2.42115 100.049L1.71381 100.77Z" fill="black"/>
<path d="M5.90354 100.371L5.48 99.9389L5.84132 99.5846L5.57179 99.3097L4.857 100.01L4.07922 99.2171L4.87256 98.4394L5.57333 99.1542L5.9268 98.8076L6.34264 99.2318L5.98917 99.5783L6.34341 99.9396L5.90354 100.371ZM3.48626 98.6123L2.71618 97.8268L3.50952 97.0491L4.2796 97.8345L3.48626 98.6123Z" fill="black"/>
<path d="M8.09104 98.2657L7.63622 97.7874L8.03622 97.407L7.74678 97.1027L6.95548 97.8552L6.12025 96.9769L6.99851 96.1417L7.75104 96.933L8.14235 96.5609L8.5889 97.0305L8.1976 97.4026L8.578 97.8026L8.09104 98.2657ZM5.48349 96.3074L4.65654 95.4378L5.5348 94.6026L6.36175 95.4722L5.48349 96.3074Z" fill="black"/>
<path d="M10.505 96.0125L10.0207 95.4866L10.4605 95.0814L10.1523 94.7468L9.28211 95.5482L8.39261 94.5824L9.3584 93.6929L10.1598 94.5631L10.5901 94.1668L11.0657 94.6831L10.6354 95.0794L11.0405 95.5193L10.505 96.0125ZM7.71447 93.8461L6.83378 92.8899L7.79957 92.0004L8.68027 92.9566L7.71447 93.8461Z" fill="black"/>
<path d="M13.1539 93.6218L12.6428 93.0459L13.1244 92.6184L12.7992 92.252L11.8464 93.0977L10.9077 92.0401L11.9653 91.1015L12.811 92.0543L13.2821 91.6361L13.784 92.2015L13.3128 92.6197L13.7403 93.1014L13.1539 93.6218ZM10.1921 91.2339L9.2628 90.1868L10.3203 89.2482L11.2497 90.2953L10.1921 91.2339Z" fill="black"/>
<path d="M16.0487 91.1073L15.5137 90.4793L16.0389 90.0319L15.6985 89.6322L14.6594 90.5174L13.677 89.3641L14.8302 88.3817L15.7154 89.4208L16.2292 88.983L16.7545 89.5996L16.2407 90.0374L16.6881 90.5626L16.0487 91.1073ZM12.928 88.4849L11.9553 87.343L13.1085 86.3606L14.0812 87.5024L12.928 88.4849Z" fill="black"/>
<path d="M19.1997 88.4831L18.6438 87.8009L19.2144 87.336L18.8607 86.9019L17.7319 87.8216L16.7111 86.5688L17.9639 85.548L18.8836 86.6768L19.4418 86.222L19.9876 86.8918L19.4294 87.3466L19.8943 87.9171L19.1997 88.4831ZM15.9329 85.6137L14.9222 84.3733L16.175 83.3526L17.1857 84.5929L15.9329 85.6137Z" fill="black"/>
<path d="M22.8846 85.5964L22.2118 84.7261L22.9397 84.1634L22.5116 83.6096L21.0716 84.7227L19.8362 83.1246L21.4343 81.8891L22.5475 83.329L23.2595 82.7786L23.92 83.633L23.208 84.1835L23.7707 84.9114L22.8846 85.5964ZM18.8943 81.9062L17.6711 80.3239L19.2692 79.0884L20.4925 80.6707L18.8943 81.9062Z" fill="black"/>
<path d="M27.4947 82.1671L26.7169 81.1006L27.6089 80.4501L27.114 79.7714L25.3494 81.0582L23.9211 79.0997L25.8797 77.6714L27.1665 79.4361L28.0391 78.7997L28.8027 79.8469L27.9301 80.4832L28.5806 81.3752L27.4947 82.1671ZM22.8323 77.6065L21.4182 75.6674L23.3767 74.2391L24.7908 76.1783L22.8323 77.6065Z" fill="black"/>
<path d="M33.4533 78.0782L32.4744 76.6155L33.6977 75.7968L33.0748 74.866L30.6547 76.4857L28.8571 73.7997L31.5431 72.0021L33.1627 74.4221L34.3594 73.6212L35.3205 75.0573L34.1238 75.8582L34.9425 77.0815L33.4533 78.0782ZM27.4867 71.752L25.7069 69.0926L28.3928 67.295L30.1726 69.9544L27.4867 71.752Z" fill="black"/>
<path d="M40.9962 73.2918L39.9754 71.5952L41.3944 70.7414L40.7448 69.6618L37.9377 71.3507L36.0632 68.2352L39.1788 66.3607L40.8677 69.1677L42.2558 68.3326L43.258 69.9983L41.8699 70.8335L42.7237 72.2524L40.9962 73.2918ZM34.6341 65.86L32.7781 62.7753L35.8937 60.9007L37.7497 63.9854L34.6341 65.86Z" fill="black"/>
<path d="M49.6883 68.3561L48.6528 66.4151L50.2763 65.549L49.6173 64.3138L46.4057 66.0271L44.5041 62.4626L48.0686 60.561L49.7819 63.7726L51.3701 62.9254L52.3868 64.8311L50.7986 65.6784L51.6647 67.3018L49.6883 68.3561ZM43.0544 59.7451L41.1717 56.2159L44.7361 54.3144L46.6189 57.8436L43.0544 59.7451Z" fill="black"/>
<path d="M59.9841 63.2941L58.8865 60.8931L60.8946 59.9751L60.1962 58.4472L56.2236 60.2632L54.208 55.8541L58.6171 53.8385L60.4331 57.8111L62.3976 56.913L63.4753 59.2704L61.5108 60.1684L62.4288 62.1765L59.9841 63.2941ZM52.6713 52.4927L50.6756 48.1272L55.0847 46.1116L57.0804 50.4771L52.6713 52.4927Z" fill="black"/>
<path d="M73.3657 57.9096L72.1564 54.6039L74.9213 53.5925L74.1517 51.4888L68.6822 53.4896L66.4616 47.419L72.5322 45.1984L74.5329 50.6679L77.2376 49.6785L78.4249 52.9242L75.7202 53.9136L76.7316 56.6784L73.3657 57.9096ZM64.7686 42.7909L62.57 36.7804L68.6406 34.5598L70.8392 40.5703L64.7686 42.7909Z" fill="black"/>
<path d="M92.8739 52.2745L91.6258 47.1441L95.9166 46.1003L95.1224 42.8355L86.6339 44.9005L84.342 35.4793L93.7632 33.1873L95.8282 41.6758L100.026 40.6546L101.251 45.6917L97.0536 46.7129L98.0975 51.0037L92.8739 52.2745ZM82.5947 28.2968L80.3254 18.9688L89.7466 16.6769L92.0159 26.0048L82.5947 28.2968Z" fill="black"/>
<path d="M121.214 47.8312L120.643 40.8144L126.512 40.3371L126.148 35.8718L114.539 36.816L113.491 23.9306L126.376 22.8826L127.321 34.4923L133.062 34.0253L133.622 40.9146L127.881 41.3815L128.358 47.2501L121.214 47.8312ZM112.692 14.107L111.654 1.34914L124.54 0.30116L125.577 13.059L112.692 14.107Z" fill="black"/>
<path d="M154.958 47.4386L155.63 40.4307L161.491 40.9923L161.918 36.5327L150.323 35.4218L151.556 22.5527L164.425 23.7857L163.314 35.3806L169.048 35.9299L168.389 42.8104L162.655 42.2611L162.094 48.1222L154.958 47.4386ZM152.496 12.7417L153.717 0L166.586 1.23296L165.365 13.9746L152.496 12.7417Z" fill="black"/>
<path d="M185.165 51.5962L186.473 46.481L190.752 47.5757L191.585 44.3206L183.121 42.1549L185.525 32.7616L194.918 35.1653L192.753 43.6286L196.938 44.6995L195.653 49.7217L191.467 48.6507L190.373 52.9289L185.165 51.5962ZM187.357 25.6003L189.737 16.3L199.131 18.7037L196.751 28.004L187.357 25.6003Z" fill="black"/>
<path d="M206.471 57.5152L207.716 54.2227L210.47 55.2637L211.262 53.1685L205.814 51.109L208.1 45.0626L214.146 47.3484L212.087 52.7961L214.781 53.8146L213.558 57.0473L210.865 56.0288L209.823 58.7826L206.471 57.5152ZM209.842 40.453L212.106 34.4665L218.152 36.7523L215.889 42.7388L209.842 40.453Z" fill="black"/>
<path d="M220.717 63.1731L221.843 60.7856L223.84 61.7278L224.557 60.2085L220.607 58.3444L222.676 53.9601L227.06 56.029L225.196 59.9792L227.15 60.901L226.043 63.2451L224.09 62.3234L223.148 64.3202L220.717 63.1731ZM224.253 50.6175L226.302 46.2765L230.686 48.3454L228.638 52.6864L224.253 50.6175Z" fill="black"/>
<path d="M231.423 68.4279L232.481 66.4993L234.094 67.3845L234.768 66.1572L231.577 64.4059L233.521 60.8642L237.062 62.8079L235.311 65.999L236.889 66.865L235.85 68.7586L234.272 67.8926L233.387 69.5056L231.423 68.4279ZM235.002 58.1641L236.927 54.6575L240.469 56.6012L238.544 60.1078L235.002 58.1641Z" fill="black"/>
<path d="M240.301 73.4911L241.346 71.8092L242.753 72.6829L243.418 71.6126L240.635 69.8841L242.553 66.7954L245.642 68.7138L243.913 71.4967L245.29 72.3515L244.264 74.0029L242.888 73.1481L242.014 74.5548L240.301 73.4911ZM244.016 64.4406L245.915 61.3825L249.004 63.301L247.105 66.3591L244.016 64.4406Z" fill="black"/>
<path d="M248.019 78.4256L249.016 76.9752L250.229 77.8091L250.864 76.8862L248.464 75.2365L250.295 72.5732L252.958 74.4041L251.309 76.8037L252.495 77.6195L251.516 79.0435L250.33 78.2277L249.496 79.4408L248.019 78.4256ZM251.691 70.5427L253.503 67.9056L256.167 69.7365L254.354 72.3736L251.691 70.5427Z" fill="black"/>
<path d="M254.329 82.8034L255.121 81.7479L256.004 82.4109L256.508 81.7392L254.762 80.4277L256.218 78.4894L258.156 79.945L256.844 81.6914L257.708 82.34L256.93 83.3763L256.066 82.7277L255.403 83.6105L254.329 82.8034ZM257.327 77.0117L258.769 75.0926L260.707 76.5483L259.266 78.4674L257.327 77.0117Z" fill="black"/>
<path d="M258.787 86.1152L259.333 85.4253L259.91 85.8821L260.258 85.4431L259.116 84.5393L260.119 83.2723L261.386 84.2754L260.483 85.417L261.047 85.8639L260.511 86.5413L259.946 86.0944L259.489 86.6714L258.787 86.1152ZM260.884 82.3064L261.877 81.052L263.144 82.0551L262.151 83.3095L260.884 82.3064Z" fill="black"/>
<path d="M262.031 88.7145L262.557 88.0786L263.089 88.5181L263.423 88.1134L262.371 87.2439L263.336 86.076L264.504 87.0411L263.634 88.0933L264.155 88.5233L263.639 89.1477L263.118 88.7177L262.679 89.2496L262.031 88.7145ZM264.072 85.1857L265.027 84.0294L266.195 84.9944L265.24 86.1507L264.072 85.1857Z" fill="black"/>
<path d="M265.018 91.2082L265.52 90.6243L266.009 91.0441L266.328 90.6725L265.362 89.842L266.284 88.7697L267.356 89.6915L266.526 90.6576L267.003 91.0683L266.511 91.6416L266.033 91.2309L265.613 91.7192L265.018 91.2082ZM266.987 87.9523L267.899 86.8906L268.971 87.8124L268.059 88.874L266.987 87.9523Z" fill="black"/>
<path d="M267.752 93.588L268.231 93.0567L268.675 93.457L268.979 93.1189L268.101 92.3271L268.979 91.3516L269.955 92.2304L269.163 93.1094L269.598 93.5009L269.128 94.0225L268.693 93.6309L268.293 94.0752L267.752 93.588ZM269.649 90.6079L270.519 89.642L271.495 90.5208L270.625 91.4867L269.649 90.6079Z" fill="black"/>
<path d="M270.241 95.8439L270.69 95.3604L271.094 95.7361L271.38 95.4284L270.58 94.6851L271.405 93.7972L272.293 94.6221L271.55 95.4222L271.945 95.7897L271.504 96.2644L271.109 95.8969L270.733 96.3013L270.241 95.8439ZM272.034 93.1203L272.851 92.2411L273.739 93.0661L272.922 93.9452L272.034 93.1203Z" fill="black"/>
<path d="M272.504 97.9523L272.921 97.5138L273.287 97.8625L273.553 97.5835L272.827 96.8937L273.593 96.0887L274.398 96.8543L273.708 97.5796L274.067 97.9208L273.657 98.3512L273.299 98.0101L272.95 98.3768L272.504 97.9523ZM274.176 95.4749L274.935 94.6778L275.74 95.4434L274.982 96.2405L274.176 95.4749Z" fill="black"/>
<path d="M274.541 99.9092L274.929 99.519L275.255 99.8432L275.502 99.5949L274.856 98.9536L275.568 98.237L276.285 98.9488L275.643 99.5944L275.963 99.9115L275.582 100.295L275.263 99.9775L274.939 100.304L274.541 99.9092ZM276.111 97.6907L276.816 96.9812L277.532 97.693L276.827 98.4025L276.111 97.6907Z" fill="black"/>
<path d="M2.94196 157.673L2.54937 158.059L2.87152 158.387L2.62169 158.632L1.98438 157.982L1.26344 158.69L1.97078 159.411L2.62035 158.773L2.9355 159.095L3.32096 158.716L3.0058 158.395L3.33415 158.073L2.94196 157.673ZM0.713805 159.229L0 159.929L0.707348 160.65L1.42115 159.95L0.713805 159.229Z" fill="black"/>
<path d="M4.90354 159.628L4.48 160.06L4.84132 160.414L4.57179 160.689L3.857 159.988L3.07922 160.782L3.87256 161.559L4.57333 160.845L4.9268 161.191L5.34264 160.767L4.98917 160.42L5.34341 160.059L4.90354 159.628ZM2.48626 161.386L1.71618 162.172L2.50952 162.95L3.2796 162.164L2.48626 161.386Z" fill="black"/>
<path d="M7.09104 161.733L6.63622 162.211L7.03622 162.592L6.74678 162.896L5.95548 162.143L5.12025 163.022L5.99851 163.857L6.75104 163.066L7.14235 163.438L7.5889 162.968L7.1976 162.596L7.578 162.196L7.09104 161.733ZM4.48349 163.691L3.65654 164.561L4.5348 165.396L5.36175 164.527L4.48349 163.691Z" fill="black"/>
<path d="M9.50504 163.986L9.02065 164.512L9.46052 164.917L9.15228 165.252L8.28211 164.45L7.39261 165.416L8.3584 166.306L9.15983 165.436L9.59014 165.832L10.0657 165.316L9.63541 164.919L10.0405 164.479L9.50504 163.986ZM6.71447 166.153L5.83378 167.109L6.79957 167.998L7.68027 167.042L6.71447 166.153Z" fill="black"/>
<path d="M12.1539 166.377L11.6428 166.953L12.1244 167.38L11.7992 167.747L10.8464 166.901L9.90773 167.959L10.9653 168.897L11.811 167.944L12.2821 168.363L12.784 167.797L12.3128 167.379L12.7403 166.897L12.1539 166.377ZM9.19214 168.765L8.2628 169.812L9.32034 170.75L10.2497 169.703L9.19214 168.765Z" fill="black"/>
<path d="M15.0487 168.891L14.5137 169.519L15.0389 169.967L14.6985 170.366L13.6594 169.481L12.677 170.635L13.8302 171.617L14.7154 170.578L15.2292 171.016L15.7545 170.399L15.2407 169.961L15.6881 169.436L15.0487 168.891ZM11.928 171.514L10.9553 172.656L12.1085 173.638L13.0812 172.496L11.928 171.514Z" fill="black"/>
<path d="M18.1997 171.516L17.6438 172.198L18.2144 172.663L17.8607 173.097L16.7319 172.177L15.7111 173.43L16.9639 174.451L17.8836 173.322L18.4418 173.777L18.9876 173.107L18.4294 172.652L18.8943 172.082L18.1997 171.516ZM14.9329 174.385L13.9222 175.625L15.175 176.646L16.1857 175.406L14.9329 174.385Z" fill="black"/>
<path d="M21.8846 174.402L21.2118 175.273L21.9397 175.835L21.5116 176.389L20.0716 175.276L18.8362 176.874L20.4343 178.11L21.5475 176.67L22.2595 177.22L22.92 176.366L22.208 175.815L22.7707 175.087L21.8846 174.402ZM17.8943 178.092L16.6711 179.675L18.2692 180.91L19.4925 179.328L17.8943 178.092Z" fill="black"/>
<path d="M26.4947 177.832L25.7169 178.898L26.6089 179.549L26.114 180.227L24.3494 178.94L22.9211 180.899L24.8797 182.327L26.1665 180.563L27.0391 181.199L27.8027 180.152L26.9301 179.515L27.5806 178.623L26.4947 177.832ZM21.8323 182.392L20.4182 184.331L22.3767 185.76L23.7908 183.82L21.8323 182.392Z" fill="black"/>
<path d="M32.4533 181.92L31.4744 183.383L32.6977 184.202L32.0748 185.133L29.6547 183.513L27.8571 186.199L30.5431 187.997L32.1627 185.577L33.3594 186.377L34.3205 184.941L33.1238 184.14L33.9425 182.917L32.4533 181.92ZM26.4867 188.247L24.7069 190.906L27.3928 192.704L29.1726 190.044L26.4867 188.247Z" fill="black"/>
<path d="M39.9962 186.707L38.9754 188.403L40.3944 189.257L39.7448 190.337L36.9377 188.648L35.0632 191.763L38.1788 193.638L39.8677 190.831L41.2558 191.666L42.258 190L40.8699 189.165L41.7237 187.746L39.9962 186.707ZM33.6341 194.139L31.7781 197.223L34.8937 199.098L36.7497 196.013L33.6341 194.139Z" fill="black"/>
<path d="M48.6883 191.643L47.6528 193.584L49.2763 194.45L48.6173 195.685L45.4057 193.972L43.5041 197.536L47.0686 199.438L48.7819 196.226L50.3701 197.073L51.3868 195.168L49.7986 194.32L50.6647 192.697L48.6883 191.643ZM42.0544 200.254L40.1717 203.783L43.7361 205.684L45.6189 202.155L42.0544 200.254Z" fill="black"/>
<path d="M58.9841 196.705L57.8865 199.106L59.8946 200.024L59.1962 201.551L55.2236 199.735L53.208 204.145L57.6171 206.16L59.4331 202.188L61.3976 203.086L62.4753 200.728L60.5108 199.83L61.4288 197.822L58.9841 196.705ZM51.6713 207.506L49.6756 211.871L54.0847 213.887L56.0804 209.522L51.6713 207.506Z" fill="black"/>
<path d="M72.3657 202.089L71.1564 205.395L73.9213 206.406L73.1517 208.51L67.6822 206.509L65.4616 212.58L71.5322 214.8L73.5329 209.331L76.2376 210.32L77.4249 207.074L74.7202 206.085L75.7316 203.32L72.3657 202.089ZM63.7686 217.208L61.57 223.218L67.6406 225.439L69.8392 219.428L63.7686 217.208Z" fill="black"/>
<path d="M91.8739 207.724L90.6258 212.855L94.9166 213.898L94.1224 217.163L85.6339 215.098L83.342 224.519L92.7632 226.811L94.8282 218.323L99.0258 219.344L100.251 214.307L96.0536 213.286L97.0975 208.995L91.8739 207.724ZM81.5947 231.702L79.3254 241.03L88.7466 243.322L91.0159 233.994L81.5947 231.702Z" fill="black"/>
<path d="M120.214 212.167L119.643 219.184L125.512 219.662L125.148 224.127L113.539 223.183L112.491 236.068L125.376 237.116L126.321 225.506L132.062 225.973L132.622 219.084L126.881 218.617L127.358 212.749L120.214 212.167ZM111.692 245.892L110.654 258.65L123.54 259.698L124.577 246.94L111.692 245.892Z" fill="black"/>
<path d="M153.958 212.56L154.63 219.568L160.491 219.006L160.918 223.466L149.323 224.577L150.556 237.446L163.425 236.213L162.314 224.618L168.048 224.069L167.389 217.188L161.655 217.738L161.094 211.876L153.958 212.56ZM151.496 247.257L152.717 259.999L165.586 258.766L164.365 246.024L151.496 247.257Z" fill="black"/>
<path d="M184.165 208.402L185.473 213.518L189.752 212.423L190.585 215.678L182.121 217.844L184.525 227.237L193.918 224.833L191.753 216.37L195.938 215.299L194.653 210.277L190.467 211.348L189.373 207.07L184.165 208.402ZM186.357 234.398L188.737 243.699L198.131 241.295L195.751 231.995L186.357 234.398Z" fill="black"/>
<path d="M205.471 202.483L206.716 205.776L209.47 204.735L210.262 206.83L204.814 208.89L207.1 214.936L213.146 212.65L211.087 207.203L213.781 206.184L212.558 202.951L209.865 203.97L208.823 201.216L205.471 202.483ZM208.842 219.546L211.106 225.532L217.152 223.246L214.889 217.26L208.842 219.546Z" fill="black"/>
<path d="M219.717 196.826L220.843 199.213L222.84 198.271L223.557 199.79L219.607 201.654L221.676 206.039L226.06 203.97L224.196 200.019L226.15 199.098L225.043 196.754L223.09 197.675L222.148 195.678L219.717 196.826ZM223.253 209.381L225.302 213.722L229.686 211.653L227.638 207.312L223.253 209.381Z" fill="black"/>
<path d="M230.423 191.571L231.481 193.499L233.094 192.614L233.768 193.841L230.577 195.593L232.521 199.134L236.062 197.191L234.311 194L235.889 193.134L234.85 191.24L233.272 192.106L232.387 190.493L230.423 191.571ZM234.002 201.835L235.927 205.341L239.469 203.397L237.544 199.891L234.002 201.835Z" fill="black"/>
<path d="M239.301 186.508L240.346 188.189L241.753 187.316L242.418 188.386L239.635 190.115L241.553 193.203L244.642 191.285L242.913 188.502L244.29 187.647L243.264 185.996L241.888 186.851L241.014 185.444L239.301 186.508ZM243.016 195.558L244.915 198.616L248.004 196.698L246.105 193.64L243.016 195.558Z" fill="black"/>
<path d="M247.019 181.573L248.016 183.023L249.229 182.19L249.864 183.112L247.464 184.762L249.295 187.426L251.958 185.595L250.309 183.195L251.495 182.379L250.516 180.955L249.33 181.771L248.496 180.558L247.019 181.573ZM250.691 189.456L252.503 192.093L255.167 190.262L253.354 187.625L250.691 189.456Z" fill="black"/>
<path d="M253.329 177.195L254.121 178.251L255.004 177.588L255.508 178.259L253.762 179.571L255.218 181.509L257.156 180.054L255.844 178.307L256.708 177.659L255.93 176.622L255.066 177.271L254.403 176.388L253.329 177.195ZM256.327 182.987L257.769 184.906L259.707 183.45L258.266 181.531L256.327 182.987Z" fill="black"/>
<path d="M257.787 173.883L258.333 174.573L258.91 174.117L259.258 174.556L258.116 175.459L259.119 176.726L260.386 175.723L259.483 174.582L260.047 174.135L259.511 173.457L258.946 173.904L258.489 173.327L257.787 173.883ZM259.884 177.692L260.877 178.947L262.144 177.944L261.151 176.689L259.884 177.692Z" fill="black"/>
<path d="M261.031 171.284L261.557 171.92L262.089 171.481L262.423 171.885L261.371 172.755L262.336 173.923L263.504 172.958L262.634 171.905L263.155 171.475L262.639 170.851L262.118 171.281L261.679 170.749L261.031 171.284ZM263.072 174.813L264.027 175.969L265.195 175.004L264.24 173.848L263.072 174.813Z" fill="black"/>
<path d="M264.018 168.79L264.52 169.374L265.009 168.955L265.328 169.326L264.362 170.157L265.284 171.229L266.356 170.307L265.526 169.341L266.003 168.93L265.511 168.357L265.033 168.768L264.613 168.279L264.018 168.79ZM265.987 172.046L266.899 173.108L267.971 172.186L267.059 171.125L265.987 172.046Z" fill="black"/>
<path d="M266.752 166.411L267.231 166.942L267.675 166.542L267.979 166.88L267.101 167.672L267.979 168.647L268.955 167.768L268.163 166.889L268.598 166.498L268.128 165.976L267.693 166.368L267.293 165.923L266.752 166.411ZM268.649 169.391L269.519 170.357L270.495 169.478L269.625 168.512L268.649 169.391Z" fill="black"/>
<path d="M269.241 164.155L269.69 164.638L270.094 164.263L270.38 164.57L269.58 165.314L270.405 166.201L271.293 165.377L270.55 164.577L270.945 164.209L270.504 163.734L270.109 164.102L269.733 163.697L269.241 164.155ZM271.034 166.878L271.851 167.758L272.739 166.933L271.922 166.053L271.034 166.878Z" fill="black"/>
<path d="M271.504 162.046L271.921 162.485L272.287 162.136L272.553 162.415L271.827 163.105L272.593 163.91L273.398 163.144L272.708 162.419L273.067 162.078L272.657 161.647L272.299 161.989L271.95 161.622L271.504 162.046ZM273.176 164.524L273.935 165.321L274.74 164.555L273.982 163.758L273.176 164.524Z" fill="black"/>
<path d="M273.541 160.089L273.929 160.48L274.255 160.155L274.502 160.404L273.856 161.045L274.568 161.762L275.285 161.05L274.643 160.404L274.963 160.087L274.582 159.704L274.263 160.021L273.939 159.695L273.541 160.089ZM275.111 162.308L275.816 163.017L276.532 162.306L275.827 161.596L275.111 162.308Z" fill="black"/>
</svg>
